<?xml version="1.0" encoding="UTF-8"?>
<svg id="Layer_2" data-name="Layer 2" xmlns="http://www.w3.org/2000/svg" xmlns:xlink="http://www.w3.org/1999/xlink" viewBox="0 0 1000 397">
  <defs>
    <style>
      .cls-1 {
        fill: url(#linear-gradient);
      }
    </style>
    <linearGradient id="linear-gradient" x1="0" y1="198.5" x2="1000" y2="198.5" gradientUnits="userSpaceOnUse">
      <stop offset="0" stop-color="#452e80"/>
      <stop offset="1" stop-color="#26225d"/>
    </linearGradient>
  </defs>
  <g id="Layer_1-2" data-name="Layer 1">
    <path class="cls-1" d="m999.97,308.53c-.36-18.55-1.11-37.11-2.26-55.6-.68-10.89-.09-21.48,1.05-32.16.28-2.62.84-6,.02-7.89-2.65-6.12-2.08-12.03-.7-18.27.16-.73-.29-1.75-.46-2.67-1.11.6-2.03,1.1-3.97,2.14.77-4.26.89-7.36,1.86-9.75,2.48-6.11,1.21-11.37-.92-17.26-1.68.97-3.05,1.76-5.23,3.01-.3-4.36-.33-7.9-.83-11.28-.86-5.77-.86-11.74-5.54-15.36-6.02-4.66-5.8-5.32-6.78-15.03-.34-3.33-.39-6.73-.85-10.02-.26-1.85-.76-4.43-1.7-5.11-2.27-1.64-1.99-4.09-1.94-6.81.04-2.12-.16-4.24-.25-6.36-.54-.12-1.07-.23-1.61-.35-.77,4.28-1.76,8.51-2.26,12.85-.53,4.54-.6,9.19-.87,13.79-.47-.05-.94-.1-1.4-.14-.19-1.87-.65-3.77-.53-5.6.49-7.73,1.31-15.41,1.7-23.14.38-7.58-1.13-15.5-4.41-20.45-2.84-4.28-7.14,2.33-10.97,2.96-.86.14-1.61,1.65-2.47,1.77-1.52.22-3.07-.14-4.79-.27-.17-2.34-.39-3.98-.39-5.62,0-6.24-.32-12.07-4.95-15.4-.98-.71-1.25-3.49-1.55-4.4-1.69,1.95-3.54,4.32-5.59,6.27-.42.4-1.56-.74-2.4-1.19,1.32-2.74,2.42-5.03,4.1-8.53-4.75-2.32-8.56-5.39-12.51-5.84-7.7-.87-14.98-5.11-22.76-5.13-1.84,0-4.45-3.34-5.38-2.4-7.24,7.29-14.42-2.95-21.5.4-2.36-6.76-7.16-4.05-11.37-5.01,1.24.7,2.49,1.39,3.73,2.09-3.42.98-5.9.82-8.29.03-1.99-.65-4.62-1.24-5.64-3.26-1.87-3.7-3.83-3.96-6.61-3.67-2.99.31-6.03-.69-9.05-.71-.83,0-1.67,1.09-2.51,1.82-.02-.02-.05-.04-.07-.07-2.52,2.2-5.04,4.4-8.28,7.23-.33-4.22-.55-6.95-.76-9.67-4.13,11.61-12.47.61-17.37,7.64-2.33-3.59-4.65-7.15-7.1-10.93-.2.08-.97.1-1.5.64-.7.72-1.2,1.84-1.8,2.77-2.99,4.71-4.38,4.44-7.1-.83-.71-1.37-2.02-2.61-3.17-2.89-3.21-.76-6.47-1.02-9.72-1.37-.35-.04-.74.59-1.13.92.88,1.52,1.76,3.04,3.14,5.41-4.69,2.41-9.35,3.19-11.51-1.76-3.36-7.71-8.21-6.09-12.66-6.66-6.35-.82-12.77-.62-19.16-.85.04,5.57-1.77,8.4-4.77,7.16-.74-.31-1.27-1.67-1.89-2.55.99-1.38,1.98-2.76,2.99-4.12-3-.33-6.02-.68-9.67-1.1.97,2.79,1.39,4.01,1.84,5.31q-5.74,2.03-7.67-3.22c-.75,1.27-1.5,3-2.56,4.17-.83.92-2.2.81-3.02,1.74-2.19,2.49-4.14,4.34-6.59.38-.59-.96-2.1-.94-3.2-1.03-4.41-.34-8.84-.43-13.24-.89-1.2-.13-2.35-1.24-3.64-1.97.76-2.06,1.26-3.4,2.15-5.81-3.41-.36-6.39-1.2-9.3-.85-3.23.39-7.05.09-7.41,7.48-.11,2.21-2.08,4.22-3.22,6.36-5.56-4.97-10.7-5.12-16.16-4.15-4.71.84-9.53.34-14.3.43-3.91.07-7.86-.35-11.72.32-6.27,1.09-12.48,4.74-18.73-.28-.62-.5-1.75.45-2.65.49-1.84.08-3.68.12-5.51-.03-2.69-.22-5.4-.45-8.07-.99-3.4-.68-7.16,2.1-10.2-2.01-3.33,2.16-6.67,4.32-9.82,6.37-4.63-5.33-5.4-5.54-10.36-4.61-20.77,3.9-41.51,4.38-62.2-1.32-1.33-.37-2.81-.5-4.11-.06-4.49,1.52-8.8.67-13.06-1.49-.38-.19-.65-.83-.96-1.25.46-1.46.9-2.83,1.68-5.26-9.4-.66-18.06-1.29-26.68,2.27.48,1.38.87,2.5,1.4,4.04-1.49.37-2.87.38-4.06,1.09-1.19.72-2.18,2.15-3.25,3.25-3.9-7.41-3.9-7.43-9.98-7.54-2.99-.06-6,.26-8.98-.04-11.74-1.18-23.46-2.7-35.2-3.77-9.55-.87-19.13-1.04-28.67-1.95-9.69-.93-19.37.33-29.09-.74-13.25-1.46-26.58-1.27-39.88-1.77-16.34-.61-32.68-1.21-49.02-1.82-9.31-.35-18.63-.36-27.92-1.2-4.85-.44-9.38,4.83-14.31,1.27-.28-.2-.85.42-1.35.69-1.27,2.73-.17,9.11-5.14,6.79-.18-2.3-.37-4.76-.58-7.47-3.88-.64-7.32-1.53-10.78-1.71-5.02-.27-10.07-.31-15.09.03-5.73.39-11.44,1.33-17.17,1.99-.89.1-1.94.4-2.65-.13-4.46-3.36-9.1-1.87-13.74-1.45-3.95.35-7.92.34-11.88.52-17.21.78-34.45,1.12-51.63,2.65-4.42.39-9.54.98-13.75,5.94,2.28,1.98,4.06,3.52,5.8,5.03-6.37,4.51-12.43,8.24-19.1,9.54-1.45.28-2.66,3.18-3.8,4.63,2.28,9.02,3.84,17.19,1.21,26.58h8.85c.56,3.16,1.1,6.19,1.47,8.31-1.58,8.71-9.02,2.46-11.08,10.56,5.31,3.56,9.31,8.37,8.67,20.14-1.4-3.66-2.14-5.61-3.39-8.88-1.53,4.77-1.93,8.57-3.08,9.13-3.8,1.85-3.34,6.42-4.05,10.32,0-.01-.02-.03-.02-.04-.45.63-1.24,1.19-1.26,1.8-.14,4.6-.63,9.34-.04,13.77.75,5.67-1.74,13.46,4.41,16.32.54.25.75,2.96.72,4.51-.05,3-.38,5.98-.55,8.23-2.36,2.36-4.3,4.3-6.38,6.38,4.47,6.09,6.18,14.16,3.32,16.2-5.03,3.61-3.05,8.11-2.42,13.08.91,7.15.74,14.05-3.4,19.99-.47-2.06-.77-3.38-1.08-4.7-.47-.24-.93-.47-1.4-.71.17,8.77-4.42,11.11-8.05,14.84-2.11,2.16-3.98,4.82-5.71,6.97,1.48,2.65,2.35,4.2,3.32,5.92-7.53,4.76-14.07,10.06-20.68,17.25,2.81,2.38,4.67,3.97,6.63,5.63-.41,1.86-.5,3.3-1,4.35-1.26,2.67-1.18,5.1.4,7.26,1.76,2.41,3.31,2.14,5.56.21,3.25-2.8,6.87-2.04,10.83,1.48-2.67,3.35-4.89,6.15-7.13,8.96.64,1.2,1.32,2.46,1.8,3.36-1.62,3.56-3.09,6.79-4.54,9.96-3.83.84-7.65,1.67-13.06,2.85,5.14.72,8.54,1.39,11.97,1.63,3.49.24,6.99.05,10.49.05-3.86,5.36-10.41.46-13.63,9.63,4.42,0,8.33,0,12.24,0,3.77,0,7.41.72,12.26,4.65-5.06,1.3-8.44,2.17-11.82,3.03,0,.63,0,1.26-.01,1.89,4.41,1.79,8.83,3.58,13,5.27,1.2,3.38,2.38,6.84,3.64,10.23,1.15,3.07,3.74,4.32,3.7,9.32-.02,2.63,3.88,6.37,6.48,7.74,3.34,1.75,7.16,1.63,11.45,2.44-1.38,3.74-2.31,6.24-3.23,8.75,4.23,2.69,8.32,5.29,12.71,8.08.05-.17.24-1.6.56-1.67,3.63-.8,7.3-2,10.93-1.84,2.87.13,3.69,7.14,1.35,10.55-1.69.54-3.46,1.11-5.68,1.83,2.9,4.07,5.45,6.04,9.44,4.98,4.27-1.13,8.8-1.05,13.15-.48,6.29.83,12.51,3.29,18.76-.24.54-.3,1.59-.01,1.95.58,2.71,4.52,6.27,3.48,9.72,3.44,9.55-.1,19.2-1.42,28.61.17,13,2.2,26.08-.9,39.03,2.72,5.16,1.44,10.61.81,15.92.89,8.79.13,17.64-.92,26.35.31,13.95,1.98,27.85,2.32,41.81,1.3,4.15-.3,8.3-1.09,12.43-.91,12.72.55,25.42,1.77,38.14,2.16,13.28.41,26.57-.25,39.84.38,6.11.29,12.05.96,17.99-1.89,1.61-.77,3.85-.58,5.4.44,7.41,4.85,15.2-1.04,22.61,2.03,4.52-3.89,8.93-.74,13.45.16,3.39.68,6.93.03,10.4-.22,1.37-.1,2.72-1.05,4.07-1.01,15.56.53,31.12,1.43,46.69,1.72,12.53.23,25.06-.34,37.59-.36,4.19,0,8.38.87,12.57.84,7.93-.07,15.86-.38,23.79-.84,3.44-.2,6.98-2.03,10.29-1.31,5.75,1.25,10.92-.78,16.4-2.53,4.94-1.58,9.89-5.73,15.66-.83,2.79,2.37,7.29,3.98,11.29.31,1.51-1.38,4.04-.7,6.09-.55,11.12.82,22.22,2.08,33.35,2.53,5.3.22,10.63-1.54,15.94-1.45,9.7.17,19.4.72,29.08,1.71,15.53,1.58,30.95-3.8,46.56-.84,7.3,1.38,14.85-.32,22.29-.26,20.97.19,41.94.56,62.91.87,10.02.15,20.03.28,30.05.46,8.12.14,16.27-.23,24.35.61,18.16,1.9,36.31,3.85,54.49,1.33,3.02-.42,5.92-2.59,9.14-4.07-.91-1.99-1.52-2.76-1.64-3.67-.85-6.55,4.78-15.88,10.81-15.47,3.17.22,6.39-.96,9.44-1.48,1.14-4.2,2.07-7.61,2.96-10.9.89-.4,1.55-.96,2.22-.95,7.35.07,11.96-7.71,17.3-13.07,1.8-1.81,3.05-6.07,3.37-9.44.87-9.35,1.67-18.84,1.49-28.23ZM15.92,265.72c-.44-1.02-1.04-1.79-.96-2.36.1-.74.75-1.33,1.16-1.98.4.66,1.1,1.32,1.11,2,0,.65-.7,1.32-1.31,2.35Zm7.69,2.06c-.38.02-.75.05-1.13.07-.18-1.69-.35-3.38-.53-5.07.63-.02,1.25-.04,1.88-.06-.07,1.69-.15,3.37-.22,5.06Zm19.12-138.73c-.46-5.08-.57-8.12-1.08-11.02-.26-1.45-1.21-2.64-1.89-3.89,1.01-1.64,2.03-3.28,3.32-5.36,1.37,3.13,2.57,5.86,3.75,8.55-1.15,3.28-2.24,6.4-4.1,11.71Zm4.28,218.32c-1.16-1.57-2.31-3.14-3.96-5.38,3.72-1.55,5.1-.3,3.96,5.38Zm73.37,30.75c-1.99-.62-3.99-1.23-5.98-1.85.18-.94.36-1.87.54-2.81,1.9.95,3.8,1.9,5.7,2.85-.09.6-.17,1.2-.26,1.81ZM400.46,37.46c-1.55-.69-3.1-1.37-4.64-2.06.2-.91.41-1.82.61-2.74,1.53.77,3.06,1.53,4.59,2.3-.19.83-.37,1.67-.56,2.5Zm275.85-11.09c-1.01-.47-1.94-1.3-2.9-2,.37-1.04.74-2.08,1.42-4.01,1.13,1.75,1.93,2.72,2.44,3.95.13.33-.79,2.14-.96,2.07Zm62.34-2.35c2.62.43,5.23.85,9.14,1.49q-4.48,4.02-9.14-1.49Zm64.32,25.42c-.66-.23-1.19-1.28-1.77-1.97.5-.61.96-1.63,1.5-1.72.47-.08,1.03.88,2.51,2.31-1.04.69-1.72,1.55-2.23,1.38Zm14.14,1.96c-1.32-1.44-2.85-2.48-4.05-5.09h7.12c.37,2.95.73,5.87,1.07,8.68-3.02,2.04-2.88-2.23-4.14-3.59Zm8.15-2.45q4.64-1.23,4.81,8.57c-2.03-3.61-3.31-5.9-4.81-8.57Zm6.06-17.8c2.02-.22,4.04-.43,6.06-.65-2.8,3.65-2.88,3.74-6.06.65Zm82.05,46.55c-.59-.86-1.52-1.63-1.65-2.62-.1-.75.81-1.79,1.57-3.29.82,1.52,1.76,2.51,1.69,3.32-.08.94-1.04,1.73-1.62,2.59Zm9.37-11.86c-.39-.33-.42-1.51-.62-2.32.62-.2,1.34-.76,1.82-.48.42.24.56,1.45.99,2.7-1,.09-1.75.48-2.19.1Zm8.54,321.71c3.99-6.81,8.49-7.56,15.09-1.95-5.54,4.55-10.64,5.06-15.09,1.95Zm34.59-199.62c.33-.02.65-.03.98-.04.08,1.72.16,3.44.24,5.16-.41.02-.81.03-1.22.05v-5.16Zm.5,93.89c.29.79.57,1.58.86,2.37-1.15.82-2.31,1.63-3.46,2.45-.26-.74-.52-1.48-.78-2.23,1.13-.86,2.25-1.72,3.38-2.59Zm2.95,40.83c-.22,2.26-.05,4.59-.05,7.87-2.5-.16-4.93-.32-7.85-.5.64-3.02,1.61-5.14,1.39-6.99-1.01-8.82-1.01-9.06,4.63-9.52.66-.05,1.34.41,3.26,1.04-.57,3.18-1.16,5.61-1.39,8.1Zm10.17,33.1c-.2-.74-.4-1.48-.6-2.22,1.77-.96,3.54-1.93,6.02-3.28-.4,7.71-3.29,5.5-5.42,5.5Zm5.64-193.17q-2.7-7.32.63-12.41c-.19,3.8-.39,7.61-.63,12.41Zm3.63,147.88c.75.03,1.49.05,2.24.08.09,2.92.19,5.85.28,8.77-3-2.62-2.56-5.77-2.52-8.85ZM515.15,18.03c10.41,0,20.82-.75,31.23-1.07,10.26-.31,20.63.74,30.76-1.07,10.25-1.84,20.74,2.9,30.7-3.69-41.12-2.44-82.07.72-122.95,6.49,10.13,2.84,20.16-.66,30.25-.66Zm117.19-4.16c1.25.3,2.51.87,3.76.86,13.29-.04,26.58-.16,39.87-.27,3.27-.03,6.55.07,9.8-.3,1.01-.12,1.94-1.59,2.91-2.44-2.69-2.32-5.16-3.24-7.6-3.17-8.99.27-17.95,2.81-26.98.54-2.03-.51-4.18-.23-6.26,0-5.18.58-10.36,1.33-15.54,2.02.02.92.03,1.84.05,2.76Zm164.05,2.58c-13.07-4.75-17.94-4.45-22.02,1.35,8.17,3.44,15.3,3,22.02-1.35Zm40.79,5.56c-9.01-4.34-17.62-7.41-26.31-2.6.09.87.18,1.73.26,2.6h26.05Zm-87.47-9.02c.59-.95,2.05-.76,3.42-.68-6.47-1.53-13.04-3.66-20.78,1.55,6.83,1.53,12.15,7.46,17.35-.86Zm-22.75,1.06c-6.22-2.17-12.22-8.36-18.74-1.84,6.21,4.28,12.48,2.86,18.74,1.84Zm27.29-1.49c.05-.08.1-.16.15-.24l.02-.02c-.4.04-.83.03-1.28,0,.35.08.71.17,1.06.25.02,0,.03,0,.05,0Zm13.93,3.63c-4.94-4.62-9.52-3.47-13.93-3.63-.7,1.07-1.41,2.17-2.46,3.79,5.5,1.61,10.42,3.38,16.39-.17Zm-216.37,7.25c5.03,1.85,10.02,2.12,14.9-2.56h-14.86c-.02.85-.03,1.71-.05,2.56Zm300-2.93c-2.04,0-3.8.15-5.54-.04-1.88-.2-3.75-.71-5.62-1.08-.07.77-.15,1.53-.22,2.3,3.88,4.04,7.87,3.77,11.39-1.17Zm-275.57,4.71c2.13-.82,4.28-1.63,6.43-2.43-.1-.68-.2-1.37-.3-2.05-4.08-.56-8.18-2.74-12.91.53,2.73,1.6,4.79,2.81,6.84,4.02.04.05.08.1.12.15.02-.01.04-.03.06-.04,0,0-.22-.15-.24-.17Zm3.23-19.67c-.01-.37-.02-.74-.03-1.11h-18.94c0,.37,0,.74,0,1.11h18.97Zm42.92,7.89c-2.75-4.47-5.77-3.23-9.64-1.71,3.44,4.47,6.58,2.76,9.64,1.71Zm-68.91-9.32c-4.1.45-7.81.85-12.14,1.32,6.66,1.54,8.85,1.31,12.14-1.32Zm144.56,7.56c.2-.65-.15-1.65-.33-3.15-1.9.95-3.5,1.74-5.91,2.95,2.72,2.02,4.52,5.85,6.24.21Zm-63.51-9.79c-2.4.37-4.8.75-7.21,1.12,2.47.49,5.04,2.08,7.21-1.12Zm52.81.25c-.15-.71-.29-1.41-.44-2.12-1.37.62-2.73,1.24-4.1,1.85.12.61.24,1.21.37,1.82,1.39-.52,2.78-1.03,4.17-1.55Zm176.73,21.69c-.04-.51-.08-1.02-.12-1.53-1.45-.3-2.89-.6-4.34-.89-.12.64-.25,1.29-.37,1.93.77.37,1.52.98,2.3,1.05.83.08,1.69-.35,2.53-.56ZM728.75,3.71c-.01-.64-.02-1.28-.03-1.92-1.08.17-2.17.34-3.25.5.04.47.07.94.11,1.42h3.18ZM47.27,361.05c.11.64.22,1.28.33,1.92,1.34-.35,2.68-.71,4.02-1.06-.1-.81-.2-1.61-.3-2.42-1.35.52-2.7,1.04-4.05,1.57ZM653.53,21.98c.05-.71.09-1.41.14-2.12-1.25-.13-2.5-.25-3.74-.38.02.53.03,1.05.05,1.58,1.19.31,2.37.61,3.56.92Zm-111.5.1c1.4.16,2.8.31,4.2.47,0-.44,0-.88-.01-1.32-1.48.13-2.96.26-4.44.39.08.16.17.31.25.47Zm152.92-2.45c-1.45-.16-2.89-.32-4.34-.48-.02.24-.04.48-.06.73,1.43.4,2.86.79,4.29,1.19.04-.48.07-.96.11-1.43Zm-92.57,2c.5-.32,1-.64,1.5-.96-.26-.39-.53-.78-.8-1.16-.39.19-.78.38-1.17.57.16.52.31,1.03.47,1.55Zm-123.49-9.89c-.04-.44-.08-.88-.12-1.33-1.02.22-2.03.43-3.05.65.03.23.06.45.09.68h3.09Z"/>
  </g>
</svg>