<svg width="115" height="25" viewBox="0 0 115 25" fill="none" xmlns="http://www.w3.org/2000/svg">
<g clip-path="url(#clip0_76_501)">
<path d="M38.4744 13.2705C38.4744 13.608 38.5154 13.878 38.5836 14.067C38.6519 14.256 38.8021 14.4045 39.0205 14.499C39.239 14.607 39.553 14.661 39.9626 14.688L40.7272 14.7285V14.9445H34.0372V14.7285L34.5969 14.688C34.9656 14.6475 35.2523 14.5935 35.4434 14.4855C35.6346 14.391 35.7575 14.2425 35.8257 14.0535C35.894 13.8645 35.9213 13.5945 35.9213 13.257V2.03856C35.9213 1.70107 35.894 1.44457 35.8394 1.25557C35.7848 1.06657 35.6619 0.93157 35.4707 0.823571C35.2796 0.715572 34.9929 0.648072 34.6106 0.607573L34.0508 0.553573V0.351074H40.7681C42.5977 0.351074 44.0039 0.634572 45.0143 1.20157C46.0246 1.76856 46.5297 2.64606 46.5297 3.83405C46.5297 4.64405 46.2703 5.35954 45.7652 5.95354C45.26 6.54753 44.55 7.00653 43.6353 7.31703C42.7205 7.62753 41.6692 7.78953 40.4814 7.78953C39.8397 7.78953 39.1707 7.74903 38.4744 7.68153V13.2975V13.2705ZM38.4744 7.38453C39.0752 7.45203 39.6759 7.49253 40.2766 7.49253C41.5327 7.49253 42.4475 7.16853 43.0072 6.50703C43.567 5.84554 43.8401 4.98154 43.8401 3.88805V3.73955C43.8401 2.74056 43.5807 1.95756 43.0619 1.41757C42.543 0.864071 41.6556 0.594073 40.4132 0.594073H40.263C39.7032 0.594073 39.1025 0.634572 38.4744 0.702072V7.39803V7.38453Z" fill="white"/>
<path d="M60.6607 1.22857C60.5924 1.41757 60.5651 1.68757 60.5651 2.03856V13.2705C60.5651 13.6215 60.5924 13.8915 60.6607 14.067C60.7289 14.256 60.8518 14.391 61.043 14.499C61.2341 14.5935 61.5208 14.661 61.8895 14.7015L62.4356 14.7555V14.958H56.1279V14.7555L56.674 14.7015C57.0563 14.661 57.343 14.607 57.5205 14.499C57.7116 14.4045 57.8345 14.256 57.9028 14.067C57.971 13.878 57.9983 13.608 57.9983 13.2705V7.22253H51.6633V13.284C51.6633 13.635 51.6906 13.905 51.7589 14.0805C51.8271 14.2695 51.95 14.4045 52.1412 14.5125C52.3323 14.607 52.619 14.6745 52.9876 14.715L53.5338 14.769V14.9715H47.226V14.769L47.7722 14.715C48.1545 14.6745 48.4412 14.6205 48.6187 14.5125C48.8098 14.418 48.9327 14.2695 49.0009 14.0805C49.0692 13.8915 49.0965 13.6215 49.0965 13.284V2.03856C49.0965 1.68757 49.0692 1.41757 49.0009 1.22857C48.9327 1.03957 48.8098 0.891071 48.6187 0.796571C48.4275 0.702072 48.1408 0.634572 47.7722 0.607573L47.226 0.553573V0.351074H53.5338V0.553573L52.9876 0.607573C52.619 0.634572 52.3323 0.702072 52.1412 0.796571C51.95 0.891071 51.8271 1.03957 51.7589 1.22857C51.6906 1.41757 51.6633 1.68757 51.6633 2.03856V6.93903H57.9983V2.03856C57.9983 1.68757 57.971 1.41757 57.9028 1.22857C57.8345 1.03957 57.7116 0.891071 57.5205 0.796571C57.3293 0.702072 57.0426 0.634572 56.674 0.607573L56.1279 0.553573V0.351074H62.4356V0.553573L61.8895 0.607573C61.5208 0.634572 61.2341 0.702072 61.043 0.796571C60.8518 0.891071 60.7289 1.03957 60.6607 1.22857Z" fill="white"/>
<path d="M77.5086 14.9578H70.723V14.7553L71.1053 14.7283C71.7061 14.6743 72.1429 14.5663 72.416 14.3638C72.7027 14.1748 72.8393 13.8913 72.8393 13.5133C72.8393 13.2838 72.8119 13.0678 72.7573 12.8518C72.7027 12.6358 72.6208 12.3523 72.4979 12.0148L71.8153 10.0034H66.7773L66.4086 11.0564C66.3131 11.3399 66.2312 11.6369 66.1629 11.9608C66.0946 12.2848 66.0537 12.5548 66.0537 12.7978C66.0537 13.8913 66.8592 14.5393 68.4703 14.7283L68.716 14.7553V14.9578H63.1592V14.7553L63.3504 14.7283C63.9374 14.6473 64.429 14.3098 64.8522 13.7158C65.2754 13.1218 65.6987 12.2308 66.1083 11.0564L69.1802 2.36241C68.9208 1.68742 68.6887 1.14742 68.4976 0.742423C69.2348 0.742423 69.8083 0.674923 70.2042 0.553424C70.6001 0.431925 70.8732 0.256426 71.0507 0.0134277H71.078L75.2832 12.5413C75.5153 13.2028 75.7747 13.7293 76.0887 14.0938C76.4027 14.4583 76.7987 14.6743 77.3038 14.7418L77.5086 14.7688V14.9713V14.9578ZM70.3271 5.53489C69.8902 4.2659 69.5625 3.33441 69.3441 2.75391L66.8865 9.71986H71.747L70.3271 5.53489Z" fill="white"/>
<path d="M82.7787 1.22832C82.7104 1.41732 82.6831 1.68732 82.6831 2.03832V13.2703C82.6831 13.6212 82.7104 13.8912 82.7787 14.0667C82.847 14.2557 82.9698 14.3907 83.161 14.4987C83.3521 14.5932 83.6388 14.6607 84.0075 14.7012L84.5536 14.7552V14.9577H78.2459V14.7552L78.792 14.7012C79.1743 14.6607 79.461 14.6067 79.6385 14.4987C79.8296 14.4042 79.9525 14.2557 80.0208 14.0667C80.089 13.8777 80.1163 13.6077 80.1163 13.2703V2.03832C80.1163 1.68732 80.089 1.41732 80.0208 1.22832C79.9525 1.03933 79.8296 0.890827 79.6385 0.796327C79.4473 0.701828 79.1606 0.634328 78.792 0.607329L78.2459 0.553329V0.35083H84.5536V0.553329L84.0075 0.607329C83.6388 0.634328 83.3521 0.701828 83.161 0.796327C82.9698 0.890827 82.847 1.03933 82.7787 1.22832Z" fill="white"/>
<path d="M99.927 0.553329L99.7085 0.580329C99.0941 0.661328 98.6436 0.944826 98.3296 1.45782C98.0155 1.97082 97.8654 2.76732 97.8654 3.84731V14.9577H96.7185L88.0215 1.09333H87.9942V11.2453C87.9942 12.1093 88.1171 12.7843 88.3492 13.2838C88.5813 13.7832 88.8816 14.1342 89.2639 14.3367C89.6462 14.5392 90.1104 14.6607 90.6429 14.7147L91.1344 14.7552V14.9577H85.4547V14.7552L85.7278 14.7282C86.2056 14.6877 86.5743 14.5527 86.8473 14.3367C87.1204 14.1207 87.3252 13.7697 87.4617 13.2838C87.5982 12.7978 87.6665 12.1228 87.6665 11.2588V3.32081C87.6665 2.41632 87.489 1.75482 87.1477 1.32282C86.8064 0.890827 86.2739 0.647828 85.5776 0.580329L85.2909 0.553329V0.35083H90.5746L97.5377 11.4343V3.84731C97.5377 3.03731 97.4285 2.40282 97.21 1.94382C96.9916 1.48482 96.6775 1.14733 96.268 0.944826C95.8584 0.742328 95.3122 0.620828 94.6432 0.580329L94.2473 0.553329V0.35083H99.9133V0.553329H99.927Z" fill="white"/>
<path d="M115 14.9578H108.214V14.7553L108.597 14.7283C109.197 14.6743 109.634 14.5663 109.907 14.3638C110.194 14.1748 110.331 13.8913 110.331 13.5133C110.331 13.2838 110.303 13.0678 110.249 12.8518C110.194 12.6358 110.112 12.3523 109.989 12.0148L109.307 10.0034H104.269L103.9 11.0564C103.804 11.3399 103.723 11.6369 103.654 11.9608C103.586 12.2848 103.545 12.5548 103.545 12.7978C103.545 13.8913 104.351 14.5393 105.962 14.7283L106.207 14.7553V14.9578H100.651V14.7553L100.842 14.7283C101.429 14.6473 101.92 14.3098 102.344 13.7158C102.767 13.1218 103.19 12.2308 103.6 11.0564L106.672 2.36241C106.412 1.68742 106.18 1.14742 105.989 0.742423C106.726 0.742423 107.3 0.674923 107.696 0.553424C108.092 0.431925 108.365 0.256426 108.542 0.0134277H108.569L112.775 12.5413C113.007 13.2028 113.266 13.7293 113.58 14.0938C113.894 14.4583 114.29 14.6743 114.795 14.7418L115 14.7688V14.9713V14.9578ZM107.818 5.53489C107.382 4.2659 107.054 3.33441 106.835 2.75391L104.378 9.71986H109.238L107.818 5.53489Z" fill="white"/>
<path d="M78.2595 23.9488V17.9548H81.0994C81.823 17.9548 82.3828 18.0898 82.765 18.3733C83.1473 18.6568 83.3385 19.0348 83.3385 19.5073C83.3385 19.8313 83.2566 20.1013 83.12 20.3308C82.9698 20.5603 82.765 20.7358 82.5193 20.8573C82.2735 20.9788 82.0005 21.0463 81.7001 21.0463L81.8503 20.7358C82.1916 20.7358 82.492 20.8033 82.765 20.9248C83.0381 21.0463 83.2566 21.2218 83.4067 21.4648C83.5569 21.7078 83.6388 21.9913 83.6388 22.3423C83.6388 22.8553 83.4341 23.2603 83.0381 23.5438C82.6422 23.8273 82.0414 23.9758 81.2632 23.9758H78.2459L78.2595 23.9488ZM79.3791 23.0713H81.1949C81.6182 23.0713 81.9459 23.0038 82.1643 22.8688C82.3964 22.7338 82.5056 22.5178 82.5056 22.2073C82.5056 21.8968 82.3964 21.6943 82.1643 21.5458C81.9322 21.4108 81.6182 21.3298 81.1949 21.3298H79.2835V20.4658H80.9628C81.3588 20.4658 81.6591 20.3983 81.8639 20.2633C82.0687 20.1283 82.178 19.9258 82.178 19.6423C82.178 19.3588 82.0687 19.1563 81.8639 19.0213C81.6591 18.8863 81.3451 18.8188 80.9628 18.8188H79.3654V23.0713H79.3791Z" fill="white"/>
<path d="M85.5503 23.0173H88.9636V23.9488H84.4171V17.9548H88.8407V18.8863H85.5366V23.0173H85.5503ZM85.4684 20.4523H88.4857V21.3703H85.4684V20.4523Z" fill="white"/>
<path d="M89.7554 23.9488L92.486 17.9548H93.5919L96.3226 23.9488H95.1484L92.8001 18.5488H93.2506L90.9159 23.9488H89.7554Z" fill="white"/>
<path d="M99.7631 24.0297C98.9303 24.0297 98.2749 23.8002 97.8107 23.3412C97.3465 22.8822 97.1008 22.2072 97.1008 21.3432V17.9683H98.2203V21.3027C98.2203 21.9237 98.3569 22.3692 98.6299 22.6527C98.903 22.9362 99.2716 23.0712 99.7631 23.0712C100.255 23.0712 100.637 22.9362 100.896 22.6527C101.156 22.3692 101.292 21.9237 101.292 21.3027V17.9683H102.398V21.3432C102.398 22.2207 102.166 22.8822 101.688 23.3412C101.224 23.8002 100.569 24.0297 99.7495 24.0297H99.7631Z" fill="white"/>
<path d="M105.197 23.9488V18.8998H103.19V17.9548H108.337V18.8998H106.33V23.9488H105.211H105.197Z" fill="white"/>
<path d="M111.505 23.9488V21.5728L111.751 22.2613L109.116 17.9548H110.317L112.433 21.4243H111.764L113.894 17.9548H115L112.365 22.2613L112.624 21.5728V23.9488H111.505Z" fill="white"/>
<path d="M9.74831 9.31482C9.96676 9.85482 10.076 10.4353 10.076 11.0833C10.076 11.8393 9.88484 12.5413 9.50255 13.1758C9.12027 13.8103 8.57414 14.3098 7.86418 14.6743C7.15422 15.0388 6.33503 15.2278 5.39297 15.2278C4.38264 15.2278 3.5225 15.0253 2.82619 14.6068C2.12988 14.1883 1.58376 13.7698 1.20147 13.3243L0.218449 15.1063H0V8.65333H0.218449C1.06494 12.8653 2.79888 14.9713 5.43393 14.9713C6.1712 14.9713 6.77193 14.8498 7.24979 14.5933C7.72765 14.3368 8.06898 14.0263 8.28743 13.6348C8.50588 13.2433 8.6151 12.8653 8.6151 12.4603C8.6151 12.0553 8.54683 11.7043 8.42396 11.3668C8.30108 11.0293 8.02802 10.6513 7.60477 10.2598C7.18153 9.86832 6.55348 9.46332 5.7343 9.07183L4.27342 8.35633C3.27674 7.87033 2.47121 7.28984 1.82951 6.61484C1.18782 5.93985 0.873798 5.06235 0.873798 4.00936C0.873798 3.25336 1.05129 2.56487 1.41992 1.97087C1.78855 1.37687 2.26641 0.904377 2.89446 0.56688C3.5225 0.229382 4.23246 0.0673828 4.99703 0.0673828C5.92544 0.0673828 6.66271 0.229382 7.23614 0.53988C7.80957 0.863878 8.23281 1.18788 8.50588 1.53887L9.42063 0.188882H9.61178V5.77785H9.40698C9.14757 4.49535 8.8199 3.44236 8.42396 2.64587C8.04167 1.84937 7.56381 1.26888 7.00404 0.890878C6.44426 0.51288 5.7616 0.323881 4.96973 0.323881C4.35534 0.323881 3.85017 0.43188 3.42693 0.647879C3.00368 0.863878 2.68966 1.13388 2.48486 1.48487C2.28007 1.82237 2.17084 2.20037 2.17084 2.57837C2.17084 2.99686 2.25276 3.38836 2.43025 3.72586C2.60774 4.06336 2.89446 4.37386 3.27674 4.68435C3.67268 4.98135 4.20515 5.29185 4.87415 5.61585L6.32138 6.31784C7.2771 6.77684 8.02802 7.26284 8.57414 7.76233C9.12027 8.26183 9.5162 8.77483 9.73465 9.31482H9.74831Z" fill="white"/>
<path d="M21.176 5.45404H20.9712L20.8346 4.79255C20.6298 3.75305 20.4523 2.97006 20.2748 2.41656C20.0974 1.86306 19.8516 1.43107 19.5103 1.10707C19.1689 0.783072 18.7047 0.607573 18.0904 0.607573H17.0254V13.2705C17.0254 13.608 17.0664 13.878 17.1346 14.0805C17.2166 14.2695 17.3531 14.418 17.5442 14.526C17.7354 14.6205 18.0357 14.688 18.418 14.7015L19.3055 14.7555V14.958H12.2059V14.7555L13.0933 14.7015C13.462 14.6745 13.7487 14.6205 13.9535 14.526C14.1446 14.4315 14.2811 14.283 14.3631 14.0805C14.445 13.8915 14.4723 13.6215 14.4723 13.2705V0.607573H13.4073C12.8066 0.607573 12.3424 0.769572 12.0011 1.10707C11.6597 1.44457 11.4003 1.87656 11.2365 2.43006C11.0727 2.98356 10.8815 3.76655 10.6767 4.79255L10.5402 5.45404H10.3354V0.351074H21.176V5.45404Z" fill="white"/>
<path d="M28.4667 0.607573H29.1221C29.8593 0.607573 30.4601 0.729072 30.9379 0.95857C31.0198 0.99907 31.1017 1.03957 31.17 1.08007C31.6888 1.40407 32.0711 1.86307 32.3442 2.48406C32.6172 3.09156 32.822 3.88805 32.9859 4.86005L33.0814 5.40004H33.2999V0.351074H21.8996V0.553573L22.4593 0.607573C22.8416 0.634572 23.142 0.715572 23.3195 0.810071C23.5106 0.918071 23.6335 1.06657 23.6881 1.24207C23.7427 1.43107 23.77 1.68757 23.77 2.02506V13.2705C23.77 13.608 23.7427 13.8645 23.6881 14.0535C23.6335 14.2425 23.5106 14.391 23.3195 14.4855C23.1283 14.5935 22.8416 14.661 22.4593 14.7015L21.8996 14.7555V14.958H33.2999V9.22052H33.2453L33.1497 9.76052C32.9722 11.259 32.5626 12.4605 31.9073 13.3515C31.6342 13.716 31.3202 14.013 30.9379 14.229C30.4054 14.5395 29.7637 14.7015 29.0128 14.7015H28.4257C27.825 14.7015 27.1287 14.6745 26.3368 14.607V7.19553H28.0844C28.7807 7.19553 29.3268 7.29003 29.7091 7.49253C30.0914 7.69503 30.3781 7.97853 30.542 8.32952C30.7058 8.69402 30.815 9.15302 30.8833 9.73352L30.9379 10.0845H31.1837V4.05005H30.9379L30.8833 4.41455C30.8287 4.99505 30.7195 5.45404 30.5556 5.81854C30.3918 6.18304 30.1187 6.45304 29.7228 6.64204C29.3405 6.83103 28.7807 6.92553 28.0844 6.92553H26.3368V0.688572C27.0604 0.634572 27.7704 0.607573 28.4667 0.607573Z" fill="white"/>
</g>
<defs>
<clipPath id="clip0_76_501">
<rect width="115" height="24.0299" fill="white"/>
</clipPath>
</defs>
</svg>
