<svg width="138" height="29" viewBox="0 0 138 29" fill="none" xmlns="http://www.w3.org/2000/svg">
<g clip-path="url(#clip0_14_4)">
<path d="M46.1693 16.0152C46.1693 16.4225 46.2185 16.7483 46.3004 16.9764C46.3823 17.2045 46.5625 17.3837 46.8247 17.4977C47.0868 17.6281 47.4636 17.6932 47.9551 17.7258L48.8726 17.7747V18.0354H40.8446V17.7747L41.5163 17.7258C41.9587 17.677 42.3028 17.6118 42.5321 17.4814C42.7615 17.3674 42.909 17.1882 42.9909 16.9601C43.0728 16.732 43.1056 16.4062 43.1056 15.9989V2.4601C43.1056 2.0528 43.0728 1.74325 43.0073 1.51516C42.9417 1.28707 42.7943 1.12415 42.5649 0.993809C42.3355 0.863472 41.9915 0.782011 41.5327 0.733135L40.861 0.667966V0.423584H48.9218C51.1172 0.423584 52.8047 0.765719 54.0171 1.44999C55.2295 2.13426 55.8357 3.19325 55.8357 4.62696C55.8357 5.60448 55.5244 6.46797 54.9182 7.18482C54.312 7.90167 53.4601 8.45561 52.3624 8.83033C51.2646 9.20504 50.0031 9.40055 48.5777 9.40055C47.8077 9.40055 47.0049 9.35168 46.1693 9.27021V16.0477V16.0152ZM46.1693 8.91179C46.8902 8.99325 47.6111 9.04212 48.332 9.04212C49.8393 9.04212 50.937 8.65111 51.6087 7.8528C52.2804 7.05448 52.6081 6.01179 52.6081 4.69212V4.51291C52.6081 3.30729 52.2968 2.36235 51.6742 1.71066C51.0517 1.04269 49.9867 0.716842 48.4958 0.716842H48.3156C47.6438 0.716842 46.923 0.765719 46.1693 0.84718V8.92808V8.91179Z" fill="black"/>
<path d="M72.7928 1.48257C72.7109 1.71066 72.6782 2.03651 72.6782 2.4601V16.0152C72.6782 16.4388 72.7109 16.7646 72.7928 16.9764C72.8748 17.2045 73.0222 17.3674 73.2516 17.4977C73.481 17.6118 73.825 17.6932 74.2674 17.7421L74.9227 17.8073V18.0517H67.3534V17.8073L68.0088 17.7421C68.4675 17.6932 68.8116 17.6281 69.0246 17.4977C69.254 17.3837 69.4014 17.2045 69.4833 16.9764C69.5652 16.7483 69.598 16.4225 69.598 16.0152V8.71628H61.996V16.0314C61.996 16.455 62.0287 16.7809 62.1107 16.9927C62.1926 17.2208 62.34 17.3837 62.5694 17.514C62.7988 17.6281 63.1428 17.7095 63.5852 17.7584L64.2405 17.8236V18.068H56.6713V17.8236L57.3266 17.7584C57.7854 17.7095 58.1294 17.6444 58.3424 17.514C58.5718 17.4 58.7192 17.2208 58.8011 16.9927C58.8831 16.7646 58.9158 16.4388 58.9158 16.0314V2.4601C58.9158 2.03651 58.8831 1.71066 58.8011 1.48257C58.7192 1.25448 58.5718 1.07527 58.3424 0.961224C58.113 0.847179 57.769 0.765719 57.3266 0.733135L56.6713 0.667966V0.423584H64.2405V0.667966L63.5852 0.733135C63.1428 0.765719 62.7988 0.847179 62.5694 0.961224C62.34 1.07527 62.1926 1.25448 62.1107 1.48257C62.0287 1.71066 61.996 2.03651 61.996 2.4601V8.37415H69.598V2.4601C69.598 2.03651 69.5652 1.71066 69.4833 1.48257C69.4014 1.25448 69.254 1.07527 69.0246 0.961224C68.7952 0.847179 68.4511 0.765719 68.0088 0.733135L67.3534 0.667966V0.423584H74.9227V0.667966L74.2674 0.733135C73.825 0.765719 73.481 0.847179 73.2516 0.961224C73.0222 1.07527 72.8748 1.25448 72.7928 1.48257Z" fill="black"/>
<path d="M93.0103 18.0517H84.8676V17.8073L85.3263 17.7747C86.0472 17.7096 86.5715 17.5792 86.8992 17.3348C87.2432 17.1067 87.4071 16.7646 87.4071 16.3084C87.4071 16.0315 87.3743 15.7708 87.3088 15.5101C87.2432 15.2494 87.1449 14.9073 86.9975 14.5L86.1783 12.0725H80.1327L79.6903 13.3433C79.5757 13.6854 79.4774 14.0438 79.3954 14.4348C79.3135 14.8258 79.2644 15.1517 79.2644 15.4449C79.2644 16.7646 80.231 17.5466 82.1643 17.7747L82.4592 17.8073V18.0517H75.791V17.8073L76.0204 17.7747C76.7249 17.677 77.3147 17.2697 77.8226 16.5528C78.3305 15.836 78.8384 14.7607 79.3299 13.3433L83.0162 2.85113C82.7049 2.03652 82.4264 1.38484 82.197 0.896072C83.0818 0.896072 83.7699 0.814611 84.245 0.667982C84.7201 0.521353 85.0478 0.309555 85.2608 0.0162964H85.2936L90.3398 15.1354C90.6183 15.9337 90.9296 16.5691 91.3064 17.009C91.6832 17.4489 92.1583 17.7096 92.7645 17.791L93.0103 17.8236V18.068V18.0517ZM84.3925 6.67978C83.8682 5.14832 83.475 4.02416 83.2128 3.3236L80.2638 11.7303H86.0964L84.3925 6.67978Z" fill="black"/>
<path d="M99.3344 1.4826C99.2525 1.71069 99.2197 2.03654 99.2197 2.46013V16.0152C99.2197 16.4388 99.2525 16.7646 99.3344 16.9764C99.4163 17.2045 99.5638 17.3674 99.7932 17.4978C100.023 17.6118 100.367 17.6933 100.809 17.7422L101.464 17.8073V18.0517H93.895V17.8073L94.5504 17.7422C95.0091 17.6933 95.3532 17.6281 95.5662 17.4978C95.7955 17.3837 95.943 17.2045 96.0249 16.9764C96.1068 16.7483 96.1396 16.4225 96.1396 16.0152V2.46013C96.1396 2.03654 96.1068 1.71069 96.0249 1.4826C95.943 1.25451 95.7955 1.0753 95.5662 0.961255C95.3368 0.84721 94.9927 0.765749 94.5504 0.733165L93.895 0.667997V0.423615H101.464V0.667997L100.809 0.733165C100.367 0.765749 100.023 0.84721 99.7932 0.961255C99.5638 1.0753 99.4163 1.25451 99.3344 1.4826Z" fill="black"/>
<path d="M119.912 0.667997L119.65 0.700581C118.913 0.798334 118.372 1.14047 117.995 1.75957C117.619 2.37867 117.438 3.33991 117.438 4.64328V18.0517H116.062L105.626 1.31968H105.593V13.5714C105.593 14.6141 105.74 15.4287 106.019 16.0315C106.297 16.6343 106.658 17.0579 107.117 17.3023C107.575 17.5466 108.132 17.6933 108.771 17.7584L109.361 17.8073V18.0517H102.546V17.8073L102.873 17.7747C103.447 17.7259 103.889 17.5629 104.217 17.3023C104.544 17.0416 104.79 16.618 104.954 16.0315C105.118 15.445 105.2 14.6304 105.2 13.5877V4.00788C105.2 2.91631 104.987 2.118 104.577 1.59665C104.168 1.0753 103.529 0.782041 102.693 0.700581L102.349 0.667997V0.423615H108.689L117.045 13.7995V4.64328C117.045 3.66575 116.914 2.90002 116.652 2.34609C116.39 1.79215 116.013 1.38485 115.522 1.14047C115.03 0.896086 114.375 0.749457 113.572 0.700581L113.097 0.667997V0.423615H119.896V0.667997H119.912Z" fill="black"/>
<path d="M138 18.0517H129.857V17.8073L130.316 17.7747C131.037 17.7096 131.561 17.5792 131.889 17.3348C132.233 17.1067 132.397 16.7646 132.397 16.3084C132.397 16.0315 132.364 15.7708 132.298 15.5101C132.233 15.2494 132.135 14.9073 131.987 14.5L131.168 12.0725H125.122L124.68 13.3433C124.565 13.6854 124.467 14.0438 124.385 14.4348C124.303 14.8258 124.254 15.1517 124.254 15.4449C124.254 16.7646 125.221 17.5466 127.154 17.7747L127.449 17.8073V18.0517H120.781V17.8073L121.01 17.7747C121.715 17.677 122.304 17.2697 122.812 16.5528C123.32 15.836 123.828 14.7607 124.32 13.3433L128.006 2.85113C127.695 2.03652 127.416 1.38484 127.187 0.896072C128.071 0.896072 128.76 0.814611 129.235 0.667982C129.71 0.521353 130.037 0.309555 130.25 0.0162964H130.283L135.329 15.1354C135.608 15.9337 135.919 16.5691 136.296 17.009C136.673 17.4489 137.148 17.7096 137.754 17.791L138 17.8236V18.068V18.0517ZM129.382 6.67978C128.858 5.14832 128.465 4.02416 128.202 3.3236L125.253 11.7303H131.086L129.382 6.67978Z" fill="black"/>
<path d="M93.9114 28.9023V21.6685H97.3192C98.1876 21.6685 98.8593 21.8315 99.318 22.1736C99.7768 22.5157 100.006 22.9719 100.006 23.5421C100.006 23.9332 99.9078 24.259 99.744 24.536C99.5638 24.8129 99.318 25.0247 99.0231 25.1714C98.7282 25.318 98.4005 25.3994 98.0401 25.3994L98.2203 25.0247C98.6299 25.0247 98.9903 25.1062 99.318 25.2528C99.6457 25.3994 99.9078 25.6112 100.088 25.9045C100.268 26.1978 100.367 26.5399 100.367 26.9635C100.367 27.5826 100.121 28.0714 99.6457 28.4135C99.1706 28.7556 98.4497 28.9348 97.5158 28.9348H93.895L93.9114 28.9023ZM95.2549 27.8433H97.4339C97.9418 27.8433 98.335 27.7618 98.5971 27.5989C98.8757 27.436 99.0067 27.1753 99.0067 26.8006C99.0067 26.4259 98.8757 26.1815 98.5971 26.0023C98.3186 25.8393 97.9418 25.7416 97.4339 25.7416H95.1402V24.6989H97.1554C97.6305 24.6989 97.9909 24.6174 98.2367 24.4545C98.4825 24.2916 98.6135 24.0472 98.6135 23.7051C98.6135 23.3629 98.4825 23.1185 98.2367 22.9556C97.9909 22.7927 97.6141 22.7112 97.1554 22.7112H95.2385V27.8433H95.2549Z" fill="black"/>
<path d="M102.66 27.7781H106.756V28.9023H101.3V21.6685H106.609V22.7927H102.644V27.7781H102.66ZM102.562 24.6826H106.183V25.7905H102.562V24.6826Z" fill="black"/>
<path d="M107.706 28.9023L110.983 21.6685H112.31L115.587 28.9023H114.178L111.36 22.3854H111.901L109.099 28.9023H107.706Z" fill="black"/>
<path d="M119.716 29C118.716 29 117.93 28.723 117.373 28.1691C116.816 27.6152 116.521 26.8006 116.521 25.7579V21.6848H117.864V25.709C117.864 26.4584 118.028 26.9961 118.356 27.3382C118.684 27.6804 119.126 27.8433 119.716 27.8433C120.306 27.8433 120.764 27.6804 121.076 27.3382C121.387 26.9961 121.551 26.4584 121.551 25.709V21.6848H122.878V25.7579C122.878 26.8169 122.599 27.6152 122.026 28.1691C121.469 28.723 120.682 29 119.699 29H119.716Z" fill="black"/>
<path d="M126.236 28.9023V22.809H123.828V21.6685H130.005V22.809H127.596V28.9023H126.253H126.236Z" fill="black"/>
<path d="M133.806 28.9023V26.0348L134.101 26.8657L130.939 21.6685H132.38L134.92 25.8556H134.117L136.673 21.6685H138L134.838 26.8657L135.149 26.0348V28.9023H133.806Z" fill="black"/>
<path d="M11.698 11.2416C11.9601 11.8932 12.0912 12.5938 12.0912 13.3758C12.0912 14.2882 11.8618 15.1354 11.4031 15.9011C10.9443 16.6668 10.289 17.2697 9.43702 17.7095C8.58506 18.1494 7.60204 18.3775 6.47157 18.3775C5.25917 18.3775 4.227 18.1331 3.39143 17.6281C2.55586 17.123 1.90051 16.618 1.44177 16.0803L0.262139 18.2309H0V10.4432H0.262139C1.27793 15.5264 3.35866 18.068 6.52072 18.068C7.40544 18.068 8.12632 17.9213 8.69975 17.6118C9.27318 17.3022 9.68277 16.9275 9.94491 16.455C10.2071 15.9826 10.3381 15.5264 10.3381 15.0376C10.3381 14.5489 10.2562 14.1253 10.1087 13.718C9.9613 13.3107 9.63362 12.8545 9.12573 12.382C8.61783 11.9095 7.86418 11.4208 6.88116 10.9483L5.1281 10.0848C3.93209 9.49831 2.96545 8.79774 2.19542 7.98314C1.42538 7.16853 1.04856 6.10954 1.04856 4.83875C1.04856 3.9264 1.26155 3.0955 1.70391 2.37864C2.14627 1.66179 2.7197 1.09156 3.47335 0.68426C4.227 0.276957 5.07895 0.0814514 5.99644 0.0814514C7.11053 0.0814514 7.99525 0.276957 8.68337 0.651676C9.37148 1.04269 9.87938 1.4337 10.2071 1.85729L11.3048 0.228081H11.5341V6.97302H11.2884C10.9771 5.42527 10.5839 4.15449 10.1087 3.19325C9.65001 2.23201 9.07658 1.53145 8.40484 1.07527C7.73311 0.619092 6.91393 0.391002 5.96367 0.391002C5.2264 0.391002 4.62021 0.521339 4.11231 0.782013C3.60442 1.04269 3.22759 1.36853 2.98184 1.79213C2.73608 2.19943 2.60501 2.65561 2.60501 3.11179C2.60501 3.61684 2.70331 4.08932 2.9163 4.49662C3.12929 4.90392 3.47335 5.27864 3.93209 5.65336C4.40722 6.01179 5.04618 6.38651 5.84898 6.77752L7.58566 7.62471C8.73252 8.17864 9.63362 8.76516 10.289 9.36797C10.9443 9.97078 11.4194 10.5899 11.6816 11.2416H11.698Z" fill="black"/>
<path d="M25.4111 6.58201H25.1654L25.0015 5.7837C24.7558 4.5292 24.5428 3.58426 24.3298 2.91628C24.1168 2.2483 23.8219 1.72695 23.4123 1.33594C23.0027 0.944932 22.4457 0.733135 21.7084 0.733135H20.4305V16.0152C20.4305 16.4225 20.4796 16.7483 20.5616 16.9927C20.6599 17.2208 20.8237 17.4 21.0531 17.5303C21.2824 17.6444 21.6429 17.7258 22.1016 17.7421L23.1666 17.8073V18.0517H14.647V17.8073L15.712 17.7421C16.1543 17.7095 16.4984 17.6444 16.7441 17.5303C16.9735 17.4163 17.1374 17.2371 17.2357 16.9927C17.334 16.7646 17.3667 16.4388 17.3667 16.0152V0.733135H16.0888C15.3679 0.733135 14.8109 0.92864 14.4013 1.33594C13.9917 1.74325 13.6804 2.2646 13.4838 2.93257C13.2872 3.60055 13.0578 4.54549 12.8121 5.7837L12.6482 6.58201H12.4025V0.423584H25.4111V6.58201Z" fill="black"/>
<path d="M34.16 0.733135H34.9464C35.8311 0.733135 36.552 0.879764 37.1254 1.15673C37.2237 1.20561 37.322 1.25448 37.404 1.30336C38.0265 1.69437 38.4853 2.2483 38.813 2.99774C39.1406 3.73089 39.3864 4.69212 39.583 5.86516L39.6977 6.51684H39.9598V0.423584H26.2794V0.667966L26.9512 0.733135C27.4099 0.765719 27.7703 0.863472 27.9833 0.977517C28.2127 1.10785 28.3601 1.28707 28.4257 1.49886C28.4912 1.72695 28.524 2.03651 28.524 2.44381V16.0152C28.524 16.4225 28.4912 16.732 28.4257 16.9601C28.3601 17.1882 28.2127 17.3674 27.9833 17.4814C27.754 17.6118 27.4099 17.6932 26.9512 17.7421L26.2794 17.8073V18.0517H39.9598V11.1275H39.8943L39.7796 11.7792C39.5666 13.5876 39.0751 15.0376 38.2887 16.1129C37.961 16.5528 37.5842 16.9112 37.1254 17.1719C36.4865 17.5466 35.7164 17.7421 34.8153 17.7421H34.1108C33.3899 17.7421 32.5544 17.7095 31.6041 17.6281V8.68369H33.7012C34.5368 8.68369 35.1922 8.79774 35.6509 9.04212C36.1096 9.2865 36.4537 9.62864 36.6503 10.0522C36.8469 10.4921 36.978 11.0461 37.0599 11.7466L37.1254 12.1702H37.4203V4.88763H37.1254L37.0599 5.32752C36.9944 6.02808 36.8633 6.58201 36.6667 7.0219C36.4701 7.46179 36.1424 7.78763 35.6673 8.01572C35.2085 8.24381 34.5368 8.35785 33.7012 8.35785H31.6041V0.830887C32.4725 0.765719 33.3244 0.733135 34.16 0.733135Z" fill="black"/>
</g>
<defs>
<clipPath id="clip0_14_4">
<rect width="138" height="29" fill="white"/>
</clipPath>
</defs>
</svg>
