<?xml version="1.0" encoding="UTF-8"?>
<svg id="Layer_2" data-name="Layer 2" xmlns="http://www.w3.org/2000/svg" viewBox="0 0 10.97 7.42">
  <defs>
    <style>
      .cls-1 {
        fill: #65c0c8;
      }
    </style>
  </defs>
  <g id="Layer_1-2" data-name="Layer 1">
    <path class="cls-1" d="m10.97.8c0-.06-.03-.02-.05-.01v-.05s0,0,0,0h0c0-.09.01-.18,0-.28,0,0,0-.01,0-.02,0-.02,0-.05,0-.07,0,0,0-.02-.02-.01,0,0,0,.02,0,.03,0,0-.02,0-.03,0,0,0-.01-.03-.03-.01-.02.01,0,.03,0,.04h0s-.03.01-.04,0c-.02-.02-.03-.04-.06-.05-.02-.01-.02,0-.02.02-.04.03-.11.03-.1.1-.02-.03-.06-.03-.08-.07,0-.02-.02-.03-.04-.03-.02,0-.03.02-.03.04,0,.03,0,.06.02.09h0s0,0,0,0h0c-.01.06-.07.09-.05.16,0,0,0,.02-.02.02-.01,0-.02-.02-.03-.03,0-.03,0-.05,0-.08,0-.01,0-.03,0-.04,0,0,0,0,0-.02-.04-.03-.06-.07-.08-.12q-.07.06-.03.1s-.03.02-.06.02c0-.04-.05-.03-.08-.04,0-.02-.03-.02-.03-.03.02-.04.01-.09,0-.13,0-.03,0-.07-.05-.07-.03,0-.05-.05-.08-.03-.05.04-.07-.03-.1-.02-.03.02-.05.06-.09.06-.01,0-.03,0-.04,0-.05,0-.1,0-.14,0-.02-.01-.04,0-.05.03-.01.05.01.1-.02.14,0,0,0-.01,0-.02,0-.04,0-.07-.02-.11-.01-.04-.04-.07-.08-.06-.05,0-.1-.01-.15-.03,0,.03,0,.05,0,.08h0s-.03,0-.04,0c0,0-.01,0-.02-.01-.05-.08-.12-.02-.18-.04-.01,0-.06.03-.04.06h0s0,.02,0,.02h0s0,.02,0,.02c0,.03,0,.06-.02.08-.03-.03-.06-.05-.09,0,0,.02-.03,0-.04,0,0,0-.01-.02-.02-.02-.01-.05-.02-.1-.06-.14h0s0,0,0,0c0,0,0,0,0,0,0,0,0-.01,0-.02,0-.03,0-.06-.02-.08,0,0-.01-.01-.02-.02-.02,0-.04.03-.06,0,0-.01-.01-.03-.03-.01-.04.06-.08,0-.12,0-.05.02-.09.04-.14.06-.03,0-.06,0-.09,0-.03,0-.06,0-.08.01-.02.02.01.05,0,.07,0,0,0,0,0,0,0,0,0,0,0,0-.02.01,0,.05-.03.06,0-.02-.02-.04-.03-.06-.05-.09-.05-.09-.15-.08-.07,0-.06.06-.09.1,0,0,0,0,0,0,0,0,0,0,0,0h0s-.01,0-.02.01h0s0,0,0,0c0,0,0,0,0,0-.03-.02-.04-.09-.1-.03-.02.02-.03,0-.04-.01-.02-.02-.05-.02-.07,0-.01,0-.02-.02-.02-.04.01-.02,0-.03-.02-.04,0-.06-.02-.1-.08-.12-.03-.03-.07,0-.1-.02,0,0,0,0,0,0,0-.01-.02-.03-.03-.02-.02,0,0,.03,0,.05-.06,0-.12,0-.18,0-.02,0-.05.03-.07,0-.02-.02-.04,0-.06,0,0,0,0,0,0,0,0,0,0,0,0,0-.02.05,0,.1.02.14-.01.02,0,.06-.04.05,0,0-.01-.01-.02-.02,0-.06-.04-.11-.05-.17-.06.02-.12.02-.19.02-.04,0-.01.04-.02.06,0,0,.01,0,.02,0,0,0,0,0,0,0,0,0-.01,0-.02,0h0s0,0,0,0c0,0,0,0,0,0-.02.01-.02.03-.02.05-.01-.01-.02-.02-.03-.04-.07-.08-.14-.08-.22,0,0,0,0,0,0,0,0,0,0,0,0,0h0s0,0,0,0c-.02,0-.03.02-.03.04,0,.04,0,.09,0,.14-.02.01-.04.03-.05.04-.03-.04-.06,0-.08,0,0,0,0-.02-.02-.02,0-.01,0-.03,0-.04.01-.04.01-.08,0-.11,0-.05-.02,0-.04,0,0,0,0,0,0,0-.03-.03-.07-.03-.1,0-.02,0-.02-.03-.04-.02-.02-.01-.04-.02-.04.02h0s-.06,0-.08.02c0,0-.01,0-.02,0-.01-.01-.02-.02-.04,0-.02.01-.04.03-.06.03-.04-.02-.09,0-.14,0-.03,0-.02.02,0,.04,0,.01,0,.03-.02.03,0-.01-.02-.02-.03-.02v-.04s-.01,0-.01,0c0,0-.01,0-.01,0h0s0,0,0,0h0s0,0,0,0c-.04.02-.09-.02-.14.02,0,.03.02.06.04.08,0,0,0,0,0,0h0s0-.06-.04-.08c-.02,0-.06,0-.04.04-.01.02-.02.05-.05.06-.03,0-.02-.02-.04-.04-.01-.02-.03-.02-.05-.01-.04.01-.08.01-.12.04,0,0-.02,0-.02.01-.02,0-.04,0-.04.03,0,.03,0,.06,0,.09,0,0,0,.01,0,.02h0s0,.02,0,.02c0,0-.01.01-.02.02-.01,0-.02.02-.02.03-.05.02-.06.06-.03.1,0,0,0,.02,0,.03-.01,0-.02.01-.04.02,0-.02-.02-.02-.04-.02h0s.01-.1-.02-.14c0-.07-.04-.13-.06-.19h0s-.07.01-.1-.02c-.03-.03-.09-.02-.12-.05,0,0-.01.01-.01.02-.01,0-.02.03-.04.02-.03-.02-.02.01-.02.02,0,0,0,0,0,0h0s0,0,0,0c-.08-.01-.14.04-.22.03,0,0-.01,0-.02,0-.01,0-.03,0-.03,0,0,.04,0,.08,0,.12-.02.01-.04,0-.05-.02,0-.01,0-.03-.02-.04h0s0-.01,0-.02c0,0,0,0,0,0-.02-.03-.05-.02-.08,0-.02,0-.04,0-.06.02,0,0-.01,0-.01,0-.02,0-.05-.04-.06.01-.03.02,0,.05-.02.08h0s-.02,0-.02.02h0s-.04-.03-.06-.04c-.02-.01-.04-.02-.05,0-.03.03-.08.03-.11.07,0,0-.01,0-.02,0-.03-.08-.06-.15-.11-.22-.01-.01-.02-.03-.03,0h0s0,0,0,0c-.08-.01-.13,0-.2.02,0,0,0,0,0,0-.02-.03-.04,0-.06,0-.08-.02-.16.02-.24.03,0,0,0,0,0,0-.01,0,0,.02,0,.02,0,.02.02.06-.01.07-.03,0-.04-.02-.06-.04,0,0,0,0,0,0-.02-.03-.04-.02-.06,0h0s0,.02,0,.02c0,0,0,0,0,0,0,0,0,0,0,0,0,0,0,0,0,0,0,0,0-.01,0-.02-.04,0-.07,0-.11,0h0s-.06,0-.06.04c0,.02,0,.05,0,.07-.01,0-.03,0-.04,0-.04-.07-.09-.05-.14-.02-.01,0-.02,0-.03-.01,0-.03,0-.06,0-.1,0-.02-.02-.02-.03,0-.02.05-.03.02-.05,0-.02-.03-.02.02-.03,0-.01,0-.03,0-.04,0h0s-.04-.02-.04.01c0,0-.02,0-.03.01-.04,0-.03.05-.05.07-.03.03-.05-.05-.08-.01-.04,0-.09,0-.13,0-.02-.08-.03-.1-.1-.08-.06.02-.12,0-.18.02-.1.03-.2.08-.32.06,0,0,0,0-.01.01,0,.02,0,.04,0,.07,0,0,0,0,0,.01,0,0,0,0,0,0,0,0,0-.01,0-.02h-.03s0,0,0,0c-.01,0-.02,0-.02-.02h0s-.08,0-.13.02c0,0-.01.01-.02.02-.01,0-.02-.02-.04-.01,0,0-.01,0-.02,0,0-.06,0-.12-.03-.17,0-.04-.01-.08-.02-.12h0s-.01-.06-.02-.1c0-.01,0-.04-.02-.03-.03.01-.08-.03-.08.03,0,0-.01.01-.02.02-.06-.01-.12,0-.14.06,0,.01-.02.02-.03.04-.02.02-.07,0-.08.04-.05-.01-.02-.08-.07-.09,0,.03,0,.07,0,.1,0,.01,0,.02,0,.04-.05,0-.1,0-.15-.03,0,.05,0,.11-.07.05-.01,0-.04,0-.05.01h0S.51.5.51.5h0,0s0,0,0,0h0s-.03.03-.05,0c-.01-.01-.03-.02-.04,0-.02.01-.02.03-.01.04H.4s0,.05-.03.06c0,0-.01-.02-.02-.03,0-.02,0-.03-.02-.04,0-.04-.03-.03-.05-.02-.03.01,0,.03,0,.04-.02.02-.01.06-.06.06-.03-.02-.02,0-.02.02-.03,0-.06,0-.04.05.03.08.03.17.03.25,0,.02.01.04.03.04H.23s0,.07,0,.1c0,.04-.02.09.02.13,0,.02,0,.05,0,.07.01,0,.01.02,0,.03,0,.01,0,.02,0,.04-.02.04.01.08-.01.12,0,.03.02.05.01.08,0,.02,0,.04.02.06,0,0,.01,0,.02,0,0,.03,0,.05,0,.08,0,0,.02.01.01.02h0s0,.01.01.02c0,0,0,0,0,0,0,0,0-.02,0-.02h0s0,.02,0,.02h0,0s-.01.03-.02.04c-.05.06-.06.06-.02.12.01.02.02.03,0,.04,0,0,0,0,0,0,0,0,0,0,0,0,0,0,0,0-.01,0,0,.04,0,.08,0,.12H.26s0,.02,0,.02c0,.02,0,.05,0,.07,0,.09-.01.17,0,.26.01.04.04.08,0,.12,0,0,.02.02.03.02.01.02.04.04.03.08H.32s0,0,0,0c-.07.02-.04.07-.04.12,0,.01,0,.03,0,.04,0,.02.02.02.04.02-.04.04,0,.08,0,.13H.32s0,.02,0,.03c0,0,0,0,0,0-.03,0-.06.03-.05.05.03.04,0,.08.03.11.04.06.02.12,0,.18-.01.02-.04.04,0,.07.03.03.02.07-.02.09-.02.01-.03.02,0,.03.02.01.02.03.02.05,0,.07,0,.15-.01.22,0,.07,0,.14,0,.22,0,0,0,0,0,0-.03.03-.02.06-.02.1,0,.03-.03.06-.02.1,0,.04-.04.08,0,.12h0s0,.02,0,.02c0,.03,0,.05.03.06,0,.06-.07.1-.05.17-.02.02-.03.02-.04,0,0-.01-.01-.03-.03-.02-.01.01-.01.03,0,.04.01.03.05.02.07.04,0,.03.03.05,0,.08-.01,0-.02.03-.01.04.03.05.01.11.04.15,0,0,0,0,0,0,0,0-.01.02-.02.02,0,0-.01,0-.02,0,0,0-.01-.01-.02-.02,0,0,0-.01,0-.02,0-.02.01-.03,0-.04-.02,0-.02.01-.02.02,0,0,0,.02,0,.03H.16s-.03-.01-.03,0c0,.03.01.06.02.09.03,0,.04-.04.07-.03,0,.03,0,.05,0,.08l-.04.04s-.03,0-.04.02c-.02.02-.03.05-.02.08,0,0,0,0,0,0,0,0,.01,0,.01,0h0s.03,0,.04.02h0s-.08,0-.08.06c0,.05,0,.11-.02.16h0s0,.03.01.04H.1s0,.02,0,.03c0,0,0,0,0,0,0,0,0,.01-.01.02h0s0,.02,0,.02c0,0,0,.01,0,.02,0,.03-.02.07.02.1,0,0,0,0,0,0h0s-.01.06-.02.1q-.05.03-.02.1s-.05,0-.04.04c-.03.01-.02.04-.02.06,0,0,.01.01.02.02.01,0,.03,0,.04,0h0s-.01.04-.02.06h0s0,.02,0,.02c0,.01,0,.03,0,.04-.01.02-.02.04-.02.06,0,.01,0,.03,0,.04,0,.01-.01.03-.02.04h0s0,.02,0,.02c0,.02,0,.04.01.05.03-.07.05-.15.06-.22,0,0,0-.02,0-.02.03.02,0,.06.03.08.03-.06.03-.12.02-.18h0s0,0,0,0c0-.07,0-.14.02-.21,0,0,.02-.02.02-.02,0-.07.03-.04.06-.02.03,0,.06.02.05.06-.01,0-.01.02,0,.03,0,.02,0,.04,0,.05H.29s-.03.02-.04.02c-.06,0-.03.04-.03.06,0,.01,0,.03-.02.04,0,.04-.02.07.02.1.01.04.03.09,0,.13-.03.07-.03.15-.05.22,0,0,0,.01,0,.02,0,.01,0,.02,0,.04-.03.04-.02.08-.01.12H.16s.05.07.08.1c0,.03,0,.05,0,.08,0,0,0,.01,0,.02,0,.03-.01.05.01.07.03.02.04-.02.06-.03.01,0,.03-.02.04-.03,0-.03-.04-.05-.03-.09.03,0,.06-.03.06.02,0,.03,0,.06,0,.1,0,.02,0,.05.02.06,0,0,0-.01,0-.02,0,0,0-.01,0-.02.03-.02.02-.05.02-.08,0-.05,0-.09.02-.13.02-.01,0-.05.03-.06.02.04.03.08.03.12,0,.04,0,.08,0,.12,0,0,.02,0,.02,0h0s-.02,0-.02,0c-.01,0-.02.03-.01.04.02.02.02-.01.03-.02,0,.03-.02.06.02.08.02,0,.03.02.06.02h0s.01.01.02.02c.04,0,.04,0,.04-.07.04-.09.06-.18.06-.28.02-.02.01-.05.01-.08,0-.01,0-.03,0-.04,0,0,0,0,0,0,0,0,0,0,0,0,0,0,0,0,0,0,0,0,.01-.01.02-.02,0,0,0-.01.01-.02,0,0,0,.02.01.03,0,.03,0,.05,0,.08,0,0,.01,0,.02,0h0s-.01,0-.02,0c0,0,0,.02,0,.02,0,.06,0,.13-.02.19,0,.03-.04.07,0,.1.05,0,.01-.03.02-.04,0-.02.02-.03.04-.04,0,.01,0,.03.02.03.02,0,.01-.01.02-.02.06-.06.07-.14.05-.22,0,0,0-.01,0-.02.04.01.03-.03.04-.04.04-.02,0-.08.04-.1.01.02,0,.05.01.08,0,.02,0,.04-.01.06h0s0,.02,0,.02c0,0,0,.01,0,.02,0,.01,0,.03,0,.04h0s0,.02,0,.02c0,0,0,.01,0,.02.01.01.01.03,0,.04h0s0,.08,0,.13c.04-.02.04-.06.04-.09.01,0,.02,0,.03,0,.02.02.04.03.04.06,0,.02.02.02.04.02,0,0,.01-.01.02-.02.05.03.04-.01.04-.04h0s.01-.03,0-.05c0,0,0,0,0-.01.05-.16.06-.31.04-.47.02,0,.03-.02.03-.03.01-.04,0-.04-.03-.03,0,0,0-.01,0-.02,0,0,0,0,0-.01,0,0,.01,0,.02,0,.01,0,.03,0,.03-.01,0-.07.05-.13.02-.21-.01-.03,0-.03.03-.04,0,0,.01-.02.02-.03,0,0,0,0,0,.01,0,0-.02,0-.02.01,0,.04,0,.07,0,.11,0,.15,0,.31,0,.46,0,0,0,.01,0,.02-.01.05,0,.11,0,.16,0,.04,0,.09,0,.13,0,0,.01,0,.02,0,0-.06.04-.11.03-.17h0s0,.06.03.09c.01-.02.03-.03.03-.05-.02-.02-.02-.04,0-.06,0,0,.01,0,.02,0,.03-.02.06-.04.1-.06h0s0,.02,0,.02c0,0,0,.01,0,.02,0,.01,0,.03,0,.04,0,.02,0,.03.02.04,0,0,.01,0,.02,0,.01,0,.02-.01.03-.02h0s0,0,0,0c0,.03.04.02.04.05-.02,0-.03,0-.04.02h0s-.02.04-.02.06c0,.03-.02.07.03.08,0,.01,0,.04.02.04,0,0,0-.01,0-.02,0,0,0-.01,0-.02h0s.01-.03.02-.04c0-.02,0-.03,0-.05h0s0,0,0,0c0,0,.01-.02.02-.03.01,0,.02.01.03.02,0,0,0,0,0,0,0,0,0,0,0,0,.01,0,.02-.01.03-.02,0,0,0,0,0,0-.01,0-.03,0-.03.01,0,0,0,0,0,0,0,.01,0,.02,0,.04,0,0-.01.02-.02.02.01.02.01.06.05.05h0s.03,0,.04,0c0,0,0,.01,0,.02,0,.01,0,.03,0,.04,0,.02,0,.03.01.04,0,.02-.02.04,0,.05.02,0,.02-.03.03-.04,0,0,0,0,.01-.01.03,0,.04-.02.03-.04,0,0,0,0,0-.02-.03-.03-.05-.07-.03-.11.02-.04,0-.07-.01-.11,0,0,0,0,0,0,0,0,0,0,0,0,0,0,0,0,0,0,0,0,0-.01,0-.02,0-.01,0-.02-.01-.02v-.04s0,0,0,0c0,0,0,0,0,0,.04-.05-.03-.11.02-.16.01,0,.03,0,.03-.02,0,0,0,0,.01,0h0s0,.03,0,.04c.02.03.02.06.02.1h0s0,.02,0,.02c0,.05-.01.11,0,.16,0,.02.02.01.03.01h0s0,0,.01,0c0,.02,0,.04-.02.05-.06.01-.04.05-.03.09.04-.01.03-.04.03-.07.03.02.01.06.02.08h0s0,0,0,0c0,.01,0,.03.02.03.02,0,.02-.01.02-.02,0,0,0-.02,0-.03.02-.02.01-.05.01-.07,0-.03,0-.06.02-.09.03.02.03.05.02.09,0,.04,0,.07-.01.11,0,.02.01.02.03.02.02,0,0-.02,0-.03.02,0,.03,0,.05.01,0,0,.02,0,.02-.01,0-.02-.01-.02-.03-.02,0-.04.03-.08,0-.12h0s.02-.04.02-.06h0s0,0,0,0c.02,0,.01-.02.02-.02,0,0,0,0,0,0,.02,0,.02-.03.03-.04,0-.01,0-.03,0-.04-.01,0-.01-.03-.02-.04,0,0,0,0,0,0,0,.01,0,.03.02.04,0-.01,0-.02,0-.04.03-.05.04-.11.06-.16.01,0,.03.01.04.02,0,.03,0,.06,0,.09-.02.03-.02.07-.02.1,0,.01,0,.03,0,.03,0,0,.02,0,.02-.01.03.03.03.07.02.1,0,.05,0,.1,0,.15,0,.03,0,.06.03.06,0,.03-.02.05-.01.09.02,0,.03-.02.05-.03.05,0,.04-.03.05-.06.01,0,.02-.02.03-.03,0,0,.02.02.03.02,0,.01,0,.02,0,.04,0,0-.01.01-.01.02,0,0,0,.02,0,.02.01,0,.01-.01.01-.02,0,0,.01,0,.02,0,.04,0,.07-.06.12,0,0,0,.02-.01.02-.02,0-.02.01-.03.02-.05,0-.02,0-.04.02-.06.02.03.06,0,.08.02,0,.02.02.04.02.06,0,0,0,.01,0,.02,0,0,.01.01.02.02h0s0,.04-.02.06c-.02,0-.04,0-.06.02h0s0,0,0,0h0s-.02.04-.02.06c0,0,.01.01.02.02.02,0,.02.06.06.02-.01-.02,0-.03.02-.03,0,0,0-.02,0-.02,0-.05.04-.09.04-.14.01,0,.03-.02.04-.02h.02c.06.04.12.03.17-.03.01-.02.04-.03.05-.04.01,0,.02.02.03,0,0,0,.01,0,.02,0,.02,0,.01.04.04.04.03,0,.02-.03.03-.05.01-.07.04-.13.04-.2h0s.03-.11.05-.16c.01,0,.03,0,.04,0,0,.03,0,.05,0,.08-.01.02-.03.04,0,.06.02-.01.02-.04.02-.06h0s-.02.04-.02.06h0s0,.01,0,.01c-.02.03-.01.07-.02.1h0s-.02.02-.02.04c0,0,0,0,.01,0h0s0,0,0,0c0,0-.01,0-.02,0,0,.01-.01.03,0,.04.01,0,.02,0,.02-.02,0-.01,0-.02,0-.03h0s.01,0,.02,0c.01,0,.02,0,.02-.02,0,0,.01,0,.01,0,0,0,.01,0,.02,0h0s.02,0,.04.02c.03,0,.06,0,.04-.05,0-.01-.01-.03,0-.04h.03s.02-.02.03-.04h0s0,.06,0,.09c0,.03.02.02.03,0,0,0,.01,0,.02,0,.02,0,.02-.02.03-.03h0s0,0,.01,0c0,.01.01.03.01.03.02,0,.03-.03.03-.05,0-.06.01-.12.02-.18.02-.04.01-.08.04-.12,0,0,0-.01,0-.02,0,0,0,0,0,0,0,0,0,.01,0,.02.03,0,.05-.05.09-.02,0,0,0,.01,0,.02-.03.02-.02.05-.02.08.01.03,0,.07,0,.1,0,.04,0,.08,0,.11-.01,0-.02.01-.01.02,0,.01,0,.02,0,.03-.01.03-.03.05-.02.09h0s0,.02,0,.02c0,0,0,.01,0,.02h0s-.01.03,0,.04c0,0,.01,0,.02,0h0s0,.1.04.13c0,0-.02,0-.02.01,0,.02.02,0,.03.01,0,0,.01,0,.02,0,0,0,0,0,0,0,.02.02.04.03.03,0,0-.03-.01-.05,0-.07.03.02.01.05.02.08h0v.03s-.01.05.02.08c.02-.03.02-.06.02-.08,0-.01,0-.02,0-.04h0s.03-.04,0-.06c-.02,0-.01,0,0-.02,0-.02-.02-.02-.04-.02,0,0,0-.01,0-.02,0-.02,0-.03-.02-.04h0s0,0,0,0c0,.02,0,.03.02.04.03,0,.04-.01.04-.04.01-.03.03-.14.02-.18,0-.02,0-.05-.02-.06h0s.06-.05.04-.09c0-.01.01-.03,0-.04,0,0-.01,0-.02,0,0,0,0,0,0-.01.06-.01.06-.02.04-.06,0,0,0,0,0,0,0,0,0,0,0,0,0-.03,0-.06.04-.08.04.02,0,.08.04.1.01.07-.02.14-.02.22h0s0,.09-.01.13c-.02.05.03.03.04.05,0,0,0,.01,0,.02,0,.03,0,.06-.01.09,0,.02.01.03.03.03,0-.02,0-.04.02-.06.02,0,.04-.01.06,0,.02,0,.03,0,.05,0,0,.01,0,.03-.01.04-.05,0-.07.01-.06.06,0,.02.01.03.04.03,0,0,0,.02,0,.02h0c-.06.01-.04.06-.04.09,0,.03.04.01.05.03,0,0,0,0,0,0,0,0,0,.01,0,.02-.03,0-.04.02-.05.04,0,0,0,.02,0,.02.01,0,.02,0,.03,0,0,0,.01-.01.02-.02,0,0,.01-.02.02-.02h0s.05-.04.04-.08c-.01-.01,0-.03,0-.04,0-.03-.02-.05,0-.08,0-.02,0-.03.01-.04,0-.01-.01-.02-.02-.02,0-.02,0-.04,0-.06,0,0,0,0,0-.02h0,0s0-.11.04-.16c.06-.04.03-.11.05-.16-.01-.02-.01-.03,0-.05,0,0,0-.01,0-.02.01,0,.02,0,.04,0,0,0,0,.01,0,.02,0,.01,0,.03,0,.04h0s0,.01,0,.01c0,.03,0,.06,0,.09,0,.07,0,.14,0,.21-.02.01-.01.02,0,.03h0s0,0,0,0h0s.01.03,0,.05c-.01,0-.02,0-.02.02,0,0,0,.01,0,.02h0s0,.03,0,.04h0,0s0,.01.01.02c0,.06,0,.06.06.04,0,.02,0,.03.02.04,0,0,0,.01,0,.02,0,0-.01,0-.02,0,0,0,0,0,0,.01h0s0,0,0-.01c-.02,0-.04-.03-.06,0h0s-.01.05-.02.08c-.01,0-.02,0-.02.03,0,.02.01.02.03.02.01.01.03.02.02.04-.06.01-.03.06-.04.1,0,0,.01.01.02.02.02,0,.02-.03.02-.04.01-.02.03-.01.04,0,0,.02,0,.04.02.03.02,0,.01-.02,0-.04-.02-.05.01-.07.04-.1,0-.03,0-.05,0-.08.02.01.01.04.02.06,0,.02,0,.04,0,.05,0,.02.01.02.02,0,.06-.01.07-.05.07-.1,0,0,0-.01,0-.02.01,0,.02,0,.03,0,0,0,0,0,0,0,0,0,0,0,0,0,0,0,0,0,0,0,0,.01,0,.03,0,.04,0,.02,0,.03.02.04,0,.05-.01.09,0,.14-.02,0-.03.02-.01.03,0,0,.02,0,.03,0,0,0,0-.02,0-.03h0s.01-.04.01-.06c0-.01.01-.03.02-.04.02,0,.05,0,.05-.03,0-.03-.02-.02-.04-.03h0s0,0,0,0c0-.03,0-.05.03-.07,0-.01,0-.03,0-.04,0,0-.01,0-.02,0,0,0,0,0,0,0,0,0,0,0,.01,0,0-.03.02-.05.04-.08.01,0,.03,0,.04,0,.05-.03.03-.09.05-.14,0,0,0-.01,0-.02t.06-.02s.01.05.02.07c0,.01,0,.03,0,.03.01,0,.01-.02.01-.03,0-.01.01-.03.02-.04h0s.03-.03.02-.06c.01,0,.01,0,.01-.02,0-.02.01-.04.02-.06h0s0,0,0,0h0s0,0,0,0c0,0,0,0,0,0,0,0,0,0,0,0,0,0,0,0,0,0,.05-.04.03-.1.04-.15,0,0,0-.02.01-.02,0,0,.01,0,.02,0,0,.02.01.04.03.04,0,.02,0,.04,0,.06.01-.01.01-.03.02-.04,0,0,0,0,0,0,0,.01,0,.03-.02.04,0,.01,0,.02,0,.04,0,.02,0,.04,0,.05,0,0,0,.01,0,.02,0,0,0,0,0,0,.02-.01,0-.02,0-.03-.02.02-.02.04-.01.06,0,0,0,.01,0,.02.03.03-.01.05-.02.08,0,0,0,.01,0,.02,0,.03-.03.09,0,.09.06.01,0-.06.04-.08,0,0,0,0,0,0,.02-.02.02-.06.06-.06.02,0,.02-.05.04-.01h0s0,.03,0,.04c0,.02,0,.03,0,.05,0,.01,0,.02.02.01.01,0,.02.04.03.03.02-.01.05-.04.02-.07,0,0,0-.01,0-.02.04,0,.06.01.06.06,0,0-.01.01-.02.02.06.02.07.02.08-.06,0,0,0,0,0,0,0,0,0,0,0,0,0,0,0,0,0,0,.02-.02.02-.05.02-.08h0s0,0,0,0c.02-.02,0-.06.04-.07,0,.03-.02.06,0,.09-.01.01,0,.03-.02.04,0,0,0,.01,0,.02.02,0,.03.02.04,0,0-.02.01-.03.02-.05.02-.01.02-.04.02-.06,0-.01,0-.03.01-.04.07-.06.07-.14.07-.22,0,0,0,0,0,0h0s0,0,0,0c.01-.01.02-.02.02-.04.02-.03.03-.06.02-.1.04-.08.06-.16.08-.25.01-.04,0-.09.04-.12.05,0,.02-.05.06-.06.03.03,0,.07.02.1,0,.03-.01.05-.02.08,0,.01-.02.02-.02.03,0,.15-.04.3-.08.44,0,.01,0,.02,0,.04,0,.02-.03.04-.01.07.03-.01.03-.04.03-.07.04-.03,0-.09.04-.12.05.01.06.06.06.1,0,.07-.01.13-.04.19,0,.02-.02.04,0,.05.02.01.04,0,.05-.02,0-.02,0-.03,0-.05.04-.11.09-.22.1-.33.02-.02.03-.05.02-.08-.01,0-.02,0-.03,0,.01,0,.02,0,.03,0,0,0,0,0,0-.01.01-.02,0-.05.02-.06,0,0,.01-.01.02-.02.02.01.02.03.02.04,0,0,0,0,.01,0h0s-.01,0-.01,0c-.01.08-.03.17-.04.25-.01.02-.03.05-.02.08v.02s-.03.06-.04.1c0,0,0,0,0,.02h0s.02-.06.02-.09c.02,0,.02-.03.02-.04.01-.03.04-.05.04-.08,0-.02,0-.05.02-.06v.07c.04-.06.09-.11.1-.18.02-.02.02-.04.01-.06,0-.03.02-.05.02-.08h0s0-.05,0-.08c0,0,0-.01,0-.02h0s0-.07.01-.1c.01-.02.04-.04.03-.08.02,0,.03-.02.04-.04,0-.06.02-.12.02-.18.01-.01.01-.03.01-.04,0-.03.02-.02.04,0-.02.12-.01.24-.02.36,0,.01,0,.03,0,.04h0c-.02.06-.02.13-.03.2,0,0,0,.02.01.02,0,.03-.04.08,0,.08.04,0,.04,0,.03.03,0,.02,0,.03,0,.04.02-.04,0-.08,0-.13,0,.04.02.08,0,.13,0,.04.03.06.07.07.01-.05.02-.09.03-.13.02,0,.04-.03.06,0h0s0,.02,0,.02c0,0,0,.01,0,.02,0,.02,0,.04,0,.06,0,.01,0,.03,0,.04,0,0,0,.03.01.03.01,0,.01-.01.01-.02,0,0,0-.01,0-.02.02-.02.02-.04.02-.06h0s.03,0,.04,0c.02.02.04.03.07.02,0,0,0,.01,0,.02,0,.01,0,.02,0,.04,0,.01-.02.03-.02.04,0,.03.01.02.03,0,.03,0,.03-.04.04-.06h0s.03-.01.04,0c0,.02,0,.03.02.03,0,.02,0,.05,0,.07-.01.05-.02.1-.03.15.03-.04.09-.06.08-.12,0-.04.03-.08.02-.12.02-.01.01-.03,0-.04h0s0-.01.01-.02c.02.02.03.04.04.06,0,.02.02.03.04.03.02.07-.02.14-.01.22,0,.02,0,.05-.01.08,0,0,0,0,0,0,0,0,0,0,0,0-.02.01-.02.03-.02.05h0s0,0,0,0c0,0,0,.01,0,.02,0,.01-.01.03,0,.03.01,0,.02,0,.02-.02,0,0,0-.02,0-.03,0-.01,0-.02,0-.03h0s.02-.05.01-.08h0s.02-.03.03-.04c.01-.01.02-.04.04-.04,0,.02.02.03.04.04,0,0,.01-.01.02-.02,0-.02.01-.04.02-.06,0,0,.01,0,.02,0,0,0,0-.01,0-.02h0s0,.02,0,.02c0,.01.01.02.03.02.02,0,.02-.02.02-.04.01-.01.02-.03.04-.04v.06s0,0,0,0h0s.01,0,0,0h0s0,0,0,0c0,0,0,.01,0,.02,0,.03,0,.03.03.03,0,0,.01.02.03.01.02,0,.04-.05.06-.02.06.06.04-.01.05-.03,0,0,0,0,0-.01v-.03s0-.01,0-.02h0c.04-.07.05-.15.07-.23.02-.01.03-.03.05-.02.01.02,0,.04,0,.06-.02.05-.04.09-.04.14,0,.04,0,.05.02.03.02,0,.03-.02.04,0,0,.03.03.03.05.03,0,0,.01.01.02.02.02.07.03.01.04,0,.03-.02.05-.05.07-.08,0,0,0,.01,0,.02,0,.02.03.02.04.03.03.03.03.03.05,0,0,0,0-.02.01-.03,0,0,0-.01,0-.02.02,0,.01.02.02.04.04.02.1,0,.11.06.01,0,.02-.01.02-.03.02.02.04.01.06,0,0,.01,0,.04.02.03.01,0,.02-.02.02-.03,0-.01,0-.03,0-.04.03-.03.02-.09.08-.1.02,0,.02.05.05,0,.03-.03.02-.08.05-.11.02,0,.04,0,.06-.02.04-.04.1-.07.12-.14,0,0,0-.01,0-.02,0,0,0-.01.01-.02h0s.04-.04.04-.07c0-.01,0-.03,0-.04.03-.06.07-.12.06-.2.02-.03.04-.07.06-.1.01,0,.02,0,.04,0,0,.01,0,.02.02.02h0s0,.07.02.1c0,.02,0,.04,0,.06-.01.03,0,.05,0,.08.02-.02.02-.04.03-.04,0,0,0,.01,0,.02,0,.07-.02.14-.03.21-.01.07-.04.13-.05.22.04-.04.06-.09.1-.11,0,0,0,0,.01,0,.02.06-.03.11-.04.17.07-.03.11-.07.15-.12,0,0,.02,0,.02,0,0,0,0,.01,0,.02,0,.02,0,.03,0,.04,0,.01,0,.03.01.04,0,0,.01-.01.02,0,0,0,.02.02.02.02,0,0,0,.01,0,.02h0s0,.02,0,.02c0,0,0,0,0,0,0,0,0,0,0,0,0,0,0,0,0,0,.02,0,.04-.01.06-.02.03,0,.04-.04.06-.05.01,0,.02-.02.02-.03,0,0,0,0,0,0,.01-.02.02-.03.04-.05.02,0,.02.02.02.04,0,.02,0,.03,0,.05.04-.02.06.05.1.01h0s.05-.04.08-.06c.02,0,.02.03.02.04,0,.01.01.01.02,0,.03,0,.04-.02.06-.03.03,0,.04-.03.04-.06.01,0,.02-.02.03-.02.01,0,.02,0,.02-.02.04.01.03.05.04.08v.03s.07-.02.09-.04c.02-.01,0-.04,0-.07.01-.02.03-.04.04-.06.03-.01.06-.02.08-.05.01-.03.04-.05,0-.08h0s.01-.1.03-.14c.06-.11.03-.24.09-.35.01-.02,0-.05,0-.07,0-.12.04-.24.06-.35,0,0,.01,0,.02,0,.05.07.06.15,0,.22.01.02.05,0,.05.04-.01.02-.04.03-.04.05,0,.02-.03.05,0,.07.03.03.02.06.01.09-.02.07-.03.15-.04.23,0,.03.02.01.03.01,0,0,0,0,0,0,0,0,0,0,0,0h0s0,.04,0,.06c-.01.02-.03.05.02.06,0,.05-.05.09-.02.14,0,0,0,.01,0,.02,0,.03,0,.05.02.1,0-.05.03-.07.02-.1,0,0,0-.01,0-.02.02-.02.04-.05.04-.08,0-.02,0-.05.04-.05,0,.07.03.13,0,.21-.02.04-.03.11.01.16.03-.03.03-.06.04-.1.03-.03.01-.06.02-.1h0s0,0,0,0c0-.01,0-.03,0-.04.03-.05.02-.11.04-.16.06.01.04.06.04.09,0,.09,0,.09.1.06-.01-.02-.01-.04,0-.06,0-.02.01-.03.02-.05,0,0-.02-.02,0-.01.02-.01.02-.03.01-.05,0,0,0,0,0-.01,0,0,0-.01.01-.02.01,0,.02,0,.04,0,0,.02,0,.04.03.04.03,0,.02-.03.03-.05.03-.02.02-.05.02-.08.02-.02.02-.04.01-.06,0-.02,0-.04,0-.06,0-.13.04-.26.03-.4h0c0-.07.03-.14-.03-.2,0,0,0-.04,0-.04.04,0,.03-.03.03-.05,0-.04,0-.08,0-.12.01-.02,0-.04,0-.06.02-.02.02-.05.01-.08,0-.08,0-.16,0-.23.03-.03.01-.05,0-.08.03-.02,0-.05,0-.08,0,0,0,0,0,0h0s0,0,0,0c.03-.08.01-.16.01-.24h0s0,0,0,0h0s.01,0,.02-.01h0s0-.03.02-.03c.02,0,.02.01.02.03,0,.03-.03.05,0,.08,0,0,0,0,0,0,.02.13,0,.26,0,.39.01.01.02.03.04.02h0s0-.03.02-.04h0s0-.02,0-.03c-.01-.07.01-.14.02-.21-.02-.02-.02-.04,0-.06,0-.07.04-.14-.01-.2.05-.03.03-.06.02-.1.03-.05.02-.09,0-.14,0-.01,0-.03,0-.04h0s-.02-.06-.01-.1c.02-.1.02-.2,0-.29h0s.01-.07,0-.1c-.01-.02-.01-.04,0-.06,0-.03,0-.05,0-.08.01,0,.01-.02,0-.03,0,0,0-.01,0-.02,0,0,0-.02-.02-.02,0,0,0,0-.01,0,0-.02,0-.04,0-.05.03,0,.06,0,.05-.04h0,0s0-.03,0-.04c0-.01-.02,0-.03-.02h0s.03-.03.03-.06c0-.02,0-.04-.01-.06,0-.01,0-.02.01-.04-.02-.01-.03-.02,0-.04,0-.01,0-.03,0-.04,0-.16,0-.33.02-.49h0s0-.03,0-.04c.02-.03-.01-.05,0-.08,0,0,0-.02,0-.02,0-.02,0-.04,0-.06,0-.07.03-.13.01-.2.01-.03,0-.07,0-.1,0,0,0,0,0,0,0,0,0,0,0,0v-.1s0-.07,0-.1c0-.03,0-.05,0-.08,0-.01,0-.03,0-.04,0-.2,0-.41,0-.61,0-.01,0-.03,0-.04,0-.01,0-.03,0-.04h0s0-.08,0-.11Zm-.06,2.54s0,0,0,0c0,0,0,0,0,0,0,0,0,0,0,0Zm-3.86,3.11s0,.01,0,0c0,0,0,0,0,0,0,0,0,0,0,0,0,0,0,0,0,0Zm-3.38-.09s0,0,0,0c0,0,0,0,0,0,0,0,0,0,0,0ZM1.26.63s.01-.02,0-.03h0s0,.02,0,.03Zm6.56,5.8s0,.02,0,.03c0-.01,0-.02,0-.03,0,0,0,0,0,0Zm-6.4-.32s0,0,0,0c0,0,0,0-.01,0h0s0,0,0,0c0,0,0,0,.01,0h0s0,0,0,0c0,0,0,0,0,0ZM.28.74s0,0,0,0c0,0,0,0,0,0,0,0,0,0,0,0Zm2.12.04s0-.05,0-.07c0,0,0,0,0,0,0,.03,0,.05,0,.07Zm8.27,4.26h0s0-.01,0-.02c0,0,0,0,0,0,0,0,0,.01,0,.02Zm-5.11,1.73s0,0,0,0h0s0,0,0,0h0ZM1.08.59s0,.01,0,.02c0,0,0-.01-.01-.01,0,0,0,0,0,0Zm4.07.59s0,0,0-.01c0,0,0,0,0,0,0,0,0,0,0,.01Zm.49-.62s0,0,0,0c0,0,0,0,0,0,0,0,0,0,0,0Zm0-.08s0,0,0,0c0,.02,0,.05,0,.08h0s0-.05,0-.08Zm4.41.41s0,0,0,0c0,0,0,0,0,0h0Zm-7.06,0s0,0,0,0c0,0,0,0,0,0h0s0,0,0,0Zm4.13-.22s0,0,0,0c0,0,0,0,0,0,0,0,0,0,0,0Zm.18-.25s0,0,0,0c0,0,0,0-.01,0,0,0,0,0,.01,0Zm3.02,3.65s0,0,0,0c0,0,0,0,0,0h0Zm-1.97,1.48s0,0,0,0c0,0,0,0,0,.01,0,0,0,0,0,0Zm-1.26.55s0,0,0,0c0,0,0,0,0,0,0,0,0,0,0,0Zm-4.21-.14s0,0,0,0c0,0,0,0,0,0,0,0,0,0,0,0Zm-.75.15s.01,0,.02-.01c0,0,0,0,0,0,0,0-.01,0-.02,0Zm-1.04.03s0,0,0,0c0,0,0,0,0,0,0,0,0,0,0,0Zm0-.2h0s0,0,0,0c0,0,0,0,0,0Zm-.47-.86h0s0,0,0,0h0Zm-.2-1.91s0,0,0,0c0,0,0,0,0,0,0,0,0,0,0,0Zm.89.58s0,0,0,0c0,0,0,0,0,0,0,0,0,0,0,0Zm6.3-1.48s0,0,0,0c-.02,0-.05,0-.07,0,0,0,0,0,0,0,.02.02.05.01.07,0,0,0,0,0,0,0Zm.07-.62s0,0,0,0c0,0,0,0,0,0,0,0,0,0,0,0Zm2.81-.4s0,0,0,0c0,0,0,0,0,0,0,0,0,0,0,0Zm.22.11s0,.01,0,0c0,0,0-.02,0-.03,0,0,0,.01,0,.02Zm-1.29,4.38s0,0,0,0c0,0,0,0,0,0Zm-.7-.83s0,0,0,0c0,0,0,0,0,0,0,0,0,0,0,0Zm-1.81.58s0,0,0,0c0,0,0,0,0,0,0,0,0,0,0,0Zm3.01-.57s0,0,0,0c0,0,0,0,0,0Zm-2.31-1.99s0,0,0,0c0-.01,0-.02-.01-.03h0s0,.02.01.03Zm2.21-1.67s0,0,0,0c0,0,0,0,0,0,0,0,0,0,0,0Zm-2.57,4.34s0,0,0,0c0,0,0,0,0,0h0Zm0,0h0s0,0,0,0c0,0,0,0,0,0,0,0,0,0,0,0Zm1.1-4.56s0,0,0,0c-.02,0-.02.03-.02.04,0-.01.02-.03.02-.04Zm1.48,4.04s0,0,0,0c0,0,0,0,0,0,0,0,0,0,0,0Zm-1.77.08s0,0-.01,0c.01,0,.02,0,.03,0,0,0,0,0,0,0,0,0-.01,0-.02,0Zm-.98-.34s0,0,0,0c0,0,0,0,0,0h0s0,0,0,0Zm2.42-2.59s0,0,0,0h0Zm.51-.49s0,0,0,0c0,0,0,0,0,0,0,0,0,0,0,0h0Zm-.07,1.81s0,.01,0,.02c0,0,0,0,0,0,0,0,0-.01,0-.02,0,0,0,0,0,0Zm-3.14-2.1s0,0,0,0c0,0,0,0,0,0,0,0,0,0,0,0Zm.06,2.97s0,0,0,0c0,0,0,0,0,0,0,0,0,0,0,0Zm-.04-.9s0,0,0,0c0,0,0,0,.01,0,0,0,0,0,0,0h-.02Zm.12-1.55h0s0,0,0,0c0,0,0,0,0,0,0,0,0,0,0,0h0s0,0,0,.01c0,0,0,0,0,0h0Zm.26,1.1h0s0,0,0,0h0s0,0,0,0Zm-.06.37s0,0,0,0c0,0,0,0,0,0h0Zm.06-.36s0,0,0,0c0,0,0,.02,0,.03,0-.01,0-.02,0-.03Zm0,0s0,0,0,0c0,0,0,0,0,0,0,0,0,0,0,0,0,0,0,0,0,0Zm-.06,0s0,0,0,0h0s0,0,0,0Zm0,.02h0s0,0,0,0c0,0,0,0,0,0,0,0,0,0,0,0,0,0,0,0,0,0Zm-.16.26s0-.04-.01-.06c0,.02,0,.04.01.06,0,0,0,0,0,0Zm-.13-1.56s0,0,0,0c0,0,0,0,0,0,0,0,0,0,0,0Zm-.02.2h0s0,0,0-.01c0,0,0,0,0,0,0,0,0,0,0,.01Zm.08.61s0,0,0,0c0,0,0,0,0,0,0,0,0,0,0,0Zm.02.14s0,0,0,0c0,0,0,0,0,0,0,0,0,0,.01,0Zm.03.82s0,0,0,0c0,0-.01,0-.02-.01,0,0,.02,0,.03,0Zm-.04.22s0,0,0,0c0,0,0,0,0,0,0,0,0,0,0,0Zm0,0s0,0,0,0c0,0,0,0,0,0,0,0,0,0,0-.01,0,0,0,0,0,0Zm.26.75s0,0,0,0c0,0,0,0,0,0h0Zm.32-.87h0s0,0,0,0c0,0,0,0,0,0h0Zm-.24.18s0,0,0,0c0,0,0,0,0,0h0Zm-.06-.84s0,0,0,0c0,0,0,0,0,0,0,0,0,0,0,0Zm-.22-.41s0,0,0-.01c0,0,.01,0,.01,0,0,0-.01,0-.02,0Zm-.16-.91s.01,0,.02,0c0,0-.01.01-.02.02,0,0,0-.02,0-.02Zm.03.24s0,0,0,0c0,0,0,0,0,0,0,0,0,0,0,0Zm.06,2.24h0s0,0,0,0c0,0,0,0,0,0Zm.49-.1s0,0,0,0c0,0,0,0,0,0,0,0,0,0,0,0Zm0,.27s0,0,0,0c0,0,0,0,0,0,0,0,0,0,0,0Zm.03,0s0,.02,0,.02c0,0,0,0-.01,0,.01,0,.01,0,.02,0Zm-.69-.6s0,0,0,.01c0,0,0,0-.01.01,0,0,0-.01,0-.02Zm.22.68s0,0,0,0h0s0,0,0,0h0s0,0,0,0c0,0,0,0,0,0Zm1.33-2.24s0,0,0,0c0,0,0,0,0,0,0,0,0,0,0,0,0,0,0,0,0,0Zm.17,0s0,0,0,0c0,0,0,0,0,0,0,0,0,0,0,0,0,0,0,0,0,0Zm1.48.52s0,0,0,0c0,0,0,0,0,0Zm-.44,1.21s0,0,0,0c0,0,0,0,0,0,0,0,0,0,0,0Zm-.43-.05s0,0,0,0c0,0,0,0,0,0,0,0,0,0,0,0Zm-.38.28s0,0,0,0h0Zm-.59.29s0,0,0,0c0,0,0,0,0,0Zm1.68-2.28s0,0,0,0c0,0,0,0,0,0,0,0,0,0,0,0Zm-.33.85s0,0,.01-.01c0,0,0,.01,0,.01h0s0,0,0,0Zm.02-.17s.02,0,.03,0c0,0-.02,0-.03,0,0,0,0,0,0,0Zm-.08.41s.01,0,.02,0c0,0,0,0,0,0,0,0,0,0,0,0,0,0,0,0,0,0Zm.34-1.18s0,0,0,0c0,0,0,0,0,0h0s0,0,0,0Zm-.24.6s0,0,0,0c0,0,0,0,0,0,0,0,0,0,0,0,0,0,0,0,.01,0,0,0,0,0-.01,0,0,0,0,0,0,0Zm-.12.3s0,0,0,0c0,0,0,0,0,0,0,0,0,0,0,0Zm-.68,1.09s0,0,0,0c0,0,0-.01.02-.02,0,0-.02,0-.02.02Zm.11-.55s0,0,0,0c0,0,0,0,0,0,0,0,0,0,0,0Zm-.14-.67s0,.02,0,.03c0-.01,0-.02,0-.03,0,0,0,0,0,0Zm-.92,1.13s0,0,0,0c0,0,0,0,0,0Zm.57-1.08s0-.02,0-.03c0,.01,0,.02,0,.03Zm.04-.27s0,0,0,0h0s0,0,0,0c0,0,0,0,0,0,0,0,0,0,0,0,0,0,0,0,0,0Zm-.13.64s0,0,0,0c0,0,0,0,0,0,0,0,0,0,0,0Zm.24-.71s0,0,0,0c0,.02.01.02.02.02,0,0,0,0,0,0,0,0-.01-.02-.02-.02Zm-.25-.18s0,0,0,0c0,0,0,0,0,0h0Zm0,.2h0s0,0,0,0t0,0Zm-.21-.22s0,0,.01,0c0,0,0,0,0,0,0,0-.01,0-.01,0,0,0,0,0,0,0h0s0,0,0,0Zm0,1.08s0-.03,0-.03c0,.01,0,.02,0,.03Zm0-1.08s0,0,0,0c0,0,0,0-.01,0,0,0,.01,0,.01,0Zm.27.87s-.01-.02,0-.02c.01,0,.02.01.02.02-.01,0-.02,0-.03,0Zm0-.94h0s0,0-.01,0h0s0,0,.01,0Zm-.34.51s0,0,0,0c0,0,0,0,0,0,0,0,0,0,0,0Zm.15,1.47s0,0,0,0c0,0,0,0,0,0,0,0,0,0,0,0Zm.26-1.07s.01.02.02.03c0,0-.02,0-.03,0,0,0,0-.02.01-.03Zm.16-.55s0,0,0,0c0,0,0,0,0,0Zm.13,1.38s0,0,0,0c0,0,0,0,0,0,0,0,0,0,0,0,0,0,0,0,0,0,0,0,0,0,0,0Zm.11-.24h0s.01-.01.02-.02h0s-.01.01-.02.02Zm.79-1.69s-.02.04-.03.08c0,0,0-.02,0-.03,0,0,0,0,0,0,0-.02.01-.04.02-.05Zm-.38.73s0,0,0,0c0,0,0,0,0,0,0,0,0,0,0,0Zm-.06-.04s0,0,0,0h0s0,0,0,0Zm-.02-.59s0,0,0,0c0,0,0,0,0,0,0,0,0,0,0,0Zm-.05.71s0,0,0,0c-.01,0-.02,0-.03,0,.01,0,.02,0,.03,0Zm-.45-.43h0s0,0,0,0c0,0,0,0,0,0Zm-.6,1.74s0,0,0,0c0,0,0,0,0,0Zm1.7-.98h0s0,0,0,0h0Zm.16.9s0,0,0,0c0,0,0,0,0,0,0,0,0,0,0,0h0Zm-.14-2.13s.01,0,.02-.01c0,0-.01.01-.02.01Zm-.37.84s0,0,0,0c0,0,0,0,0,0h0Zm-.16-.08s0,0,.01-.02c0,0,0,.01-.01.02Zm-.05.02s0,0,0,0c0,0,0,0,0,0,0,0,0,0,0,0,0,0,0,0,0,0Zm-.44-.29s0,0,0,0c0,0,0,0,0,0,0,0,0,0,0,0Zm-.06.02s0,0,0,0c0,0,0,0,0,0Zm-.42-1.02s0,0,.01,0c.01,0,0,.02,0,.03,0-.01-.01-.02-.02-.03Zm-.18.22s0,0-.02,0c0,0,0,0,0,0,.01.01.02,0,.02,0,0,0,0,0,0,.01Zm-.7.86s0-.03,0-.04c0,.01,0,.03,0,.04Zm-.31-1.27s0,0,0,0c0,0,0,0,0,0,0,0,0,0,0,0Zm-.3.56s0,0,0,0c0,0,0,0,0,0,0,0,0,0,0,.01Zm.05,1.38s0,0,0,0c0,0,0,0,0,0,0,0,0,0,0,0Zm.24,1.15s0,0,0,0c0,0,0,0,0,0Zm.69-.08s0,0,0,0c0,0,0,0,0-.01,0,0,0,.01,0,.02Zm.05.03s0-.02-.02-.03c0,.01.02.02.02.03Zm.54.11s0,0,0,0c0,0,0,0,0,0,0,0,0,0,0,0Zm.93-.38s0,0,0,0c0-.02.02-.03.02-.06,0,0,0,0,0,0h0s0,0,0,0c-.02.01-.03.03-.02.05Zm.22.68s0,.02,0,.03c0,0,0,0,0,0,0,0,0-.02,0-.02,0,0,0,0,0,.01,0,0,0,0,0,0,0,0,0,0,0-.01Zm.07-2.86h0s0,0,0,0c0,0,0,0,0,0Zm-.73.31s0-.01,0-.02c0,0,0,0,0,0,0,0,0,.01,0,.02,0,0,0,0,0,0Zm-.85-.44s-.02,0-.02,0c0,0,.01,0,.02,0,0,0,0,0,0,0Zm-.13.39h0s0,0,0,0c0,0,0,0,0,0,0,0,0,0,0,0,0,0,0,0,0,0Zm-.28.31s0,0,0,0c0,0,0,0,0,0,0,0,0,0,0,0Zm-.22-.19s0,.02.01.03c0-.01,0-.02-.01-.03Zm-.39,2.63s0,0,0,0c0,0,0,0,0,0,0,0,0,0,0,0Zm.29.73s0,0,0-.01c0,0,0,0,0,0,0,0,0,0,0,0h0v.02h0Zm.29-.5s0,.02,0,.03c0,0,0-.02,0-.03Zm.33-.37s0,0,0,0c0,0,0,0,0,0,0,0,0,0,0,0Zm.15.11s0,0,0,0c0,0,0,0,0,0,0,0,0,0,0,0Zm.2.08s0,0,0,0c0,0,0,0,0,0,0,0,0,0,0,0Zm.47-.39s0,0,0,0c-.01.01-.02.02-.02.04,0,0,0,0,0,0,0-.02.01-.03.02-.05Zm0,.27s0,0,0,0h0s0,0,0,0Zm.04-.12s0,.01,0,.02c0,0,0,0,0,0,0,0,0,0,0,0Zm.08-.17s0,0,.01,0c0,0,0,0,0,0,0,0,0,0-.01,0Zm.87.05s0,0,0,0c0,0,0,0,0,0Zm.33-2.91s0,0,0,0c0,0,0,0,0,0Zm-.2.08s0,0,0,0c0,0,0,0,0,0,0,0,0,0,0,0Zm-.31.16s0,0,0,0c0,0,0,0,0,0,0,0,0,0,0,0Zm-.06.14s0,0,0,0c0,0,0,0,0,0,0,0,0,0,0,0,0,0,0,0,0,0Zm-.4.08s0,0,0,0c0,0,0,0,0,0,0,0,0,0,0,0Zm-.01-.09s0,0,0,0c0,0,0,0,0,0,0,0,0,0,0,0Zm-.08.33s0,0,0,0c0,0,0,0,0,0,0,0,0,0,0,0Zm-.94-.93s0,0,0,0c0,0,0,0,0,0,0,0,0,0,0,0Zm-.04.03s0,0,0,0h0s0,0,0,0h0Zm-.59-.5s.02-.02.03-.02c0,0,0,0,0,0-.01,0-.03,0-.04.01Zm-.02,0s0,0,0,0c0-.02,0-.03-.02-.05,0,.02,0,.03.02.05Zm-.63,3h0s0,.01,0,.02c0,0,0,0-.01,0,0,0,0,0,0-.01Zm.43,1.78s0,.02,0,.02c0,0,0,0,0-.02,0,0,0,0,0,0,0,0,0,.02,0,.02,0,0,0-.02,0-.03,0,0,0,0,0,0Zm.37-.52s0,0,0,0c0,0,0,0,0,0,0,0,0,0,0,0Zm.22-.29h0s0,0,0,0c0,0,0,0,0,0Zm1.04-.14s0,0,0,0c0,0,0,0,0,0,0,0,0,0,0,0Zm.29-.65s0,0,0,0c0,0,0,0,0,0,0,0,0,0,0,0Zm-.1.53h0,0Zm.18-.22s0,0,0,0h0s0,0,0,0Zm.57.13s0,0-.01,0c0,0,0,0,.01,0Zm.96-1.21s0,.04,0,.06c0-.02,0-.04,0-.06Zm-.3-.44s0,0,0,0c0,0,0,0,0,0,0,0,0,0,0,0,0,0,0,0,0,0Zm.11-.45s0-.01,0-.02c0,0,0,0,0-.01,0,0,0,0,0,0,0,0,0,0,0,0,0,0,0,0,0,.01Zm-.01-.18s0-.02,0-.02c0,0,0,0,0,0v.02s0,0,0,0Zm0,.11s0,0,0,.01c0,0,0,0,0,0,0,0,0,0,0,0Zm-.14.34s0,0,0,0c0,0,0,0,0,0,0,0,0,0,0,0Zm.18.14s0,0,0,0h0s0,0,0,0c0,0,0,0,0,0Zm.06.02s0,0,0,0c0,0,0,0,0,0,0,0,0,0,0,0Zm0-1s0,0,0,0c0,0,0,0,0,0,0,0,0,0,0,0,0,0,0,0,0,0Zm-.2,1.02s0,0,0,0h0s0,0,0,0c0,0,0,0,0,0Zm.07.12h0s0,0,0,0h0s0,0,0,0Zm-.02-.88s0,0,0,0c0,0,0,0,0,0,0,0,0,0,0,0Zm-.04-.2s0,0,0,0c0,0,0,0,0,0,0,0,0,0,0,0Zm-.12.94s0,0,0,0c0,0,0,0,0,0,0,0,0,0,0,0Zm.23.98s0,0,0,0c0,0,0,0,0,0,0,0,0-.01.01-.02h0s-.01,0-.01.02h0s0,0,0,0c0,0,0,0,0,0,0,0,0,0,0,0Zm.1-.94s0,0,0,0c0,0,0,0,0,0,0,0,0,0,0,0Zm-.04-1.21h0s0,0,0,0c0,0,0,0,0,0,0,0,0,0,0,0Zm-.18.2s0,0,0,0c0,0,0,0,0,0,0,0,0,0,0,0Zm-.14.7s0,0,0,0h0Zm.28-1.12s0,0,0,0c0,0,0,0,0,0h0Zm-.1.12s0,0,0-.01c0,0,0,0,0,0,0,0,0,0,0,0Zm-.12.31s0,0,0,0c0,0,0,0,0,0,0,0,0,0,0,0Zm-.78-.63s0,0,0,0c0,0,0,0,0,0Zm-1.37-.03s0,0,0,0c0,0,0,0,0,0,0,0,0,0,0,0,0,0,0,0,0,0Zm-.1-.53s0,0,0,0c0,0,0,0,0,0,0,0,0,0,0,0Zm-1.1,4.62s0,0,0,0c0,0,0,0,0,0h0s.01-.02.02-.03c0,0,0,0,0,0,0,0-.01.01-.02.02t0,0s0,0,0,0c0,0,0,0,0,0Zm.1.03s0,0,0,0c0,0,0,0,0,0,0,0,0,0,0-.01Zm.55-.21s0,0,0,0c0,0,0,0,0,0,0,0,0,0,0,0Zm0,0s0,0,0,0c0,0,0,0,0,0,0,0,0,0,0,0Zm1.77-.79s-.01.01-.01.02c0,0,0,0,0,0,0,0,0-.01.01-.02Zm.25.49s0,0,0,0c0,0,0,0-.01,0,0,0,0,0,0-.01Zm.18-.01s0,0,0,0c0,0,0,0,0,0,0,0,0,0,0,0Zm.5-.79s0,0,0,0c0,0,0,0,0,0,0,0,0,0,0,0Zm-.53-3.07s0,0,.01,0c0,0,0,0-.01,0Zm-1.23.2s0,0-.01,0c-.02.03,0,.06,0,.08,0-.03,0-.06,0-.08,0,0,0,0,0,0,0,0,0,0,.01,0,0,0,0,0,0,0Zm-1.58-.71s0,0,0,0c0,0,0,0,0,0h0ZM2.49,6.34s0,0,0,0c0,0,0,0,0,0,0,0,0,0,0,0Zm-1.84-1.45s0,0,0,0h0s0,0,0,0c0,0,0,0,0,0Zm-.06-2.76s0,.02-.01.03c0,0,0,0,0,0,0,0,0-.02.01-.03,0,0,0,0,0,.01Zm.02,3.28h0s0,0,0,0c0,0,0,0,0,0ZM1,1.37s0,0,0,0c0,0,0,0,0,.01,0,0,0,0,0-.01Zm.19,2.53s0,0,0,0c0,0,0,0,0,0Zm-.13-2.59s0,0,0,0c0,0,0,0,0,0,0,0,0,0,0,0Zm-.35,2.54s.01.01.02.01c0,0,0,0,0,0,0,0-.01,0-.02-.01,0,0,0,0,0,0Zm0-.52s0,0,0,0c0,0,0,0,0,0,0,0,0,0,0,0,0,0,0,0,0,0Zm-.07.76s0-.02,0-.03h0s0,.02,0,.03c0,0,0,0,0,0Zm-.09.76s0,0,0,0c0,0,0,0,0,0,0,0,0,0,0,0Zm0,0s0,0,0,0c0,0,0,0,0,0,0,0,0,0,0,0,0,0,0,0,0,0Zm.07-.38s0,0,0,0c.01,0,.02,0,.03-.01h0s-.02,0-.03.01Zm.04-.41s0,0,0,0h0Zm-.12.32s0,0,0,0c0,0,0,0,0,0,0,0,0,0,0,0Zm-.08.88s0,0,0,0c0,0,0,0,0,0,0,0,0,0,0,0Zm.02.07H.49s0,0,0,0c0,0,0,0,0,0,0,0,.01,0,.02,0,0,0-.01,0-.01.01Zm.16-.79s0,0,0,0c0,0,0,0,0,0,0,0,0,0,0,0Zm.37-1.21s0,0,0,0c0,0,0,0,0,0,0,0,0,0,0,0Zm0-.6s0,.01,0,.02c0,0,0-.01,0-.02Zm-.31-.22s0,0,0,0c0,0,0,0,0-.01,0,0,0,0,0,0Zm-.15-.02s0,0,0,0c0,0,0,0,0,0h0Zm-.17,2.04H.39s0,0,0-.01c0,0,0,0,0,0,0,0,0,0,0,.01Zm.06.59s0,0,0,0c0,0,0,0,0,0,0,0,0,0,0,0Zm.1.24h0s0,0,0,0h0Zm.65-1.02s0,0,0,0c0,0,0,0,0,0,0,0,0,0,0,0Zm-.08-2.33s0-.01,0-.02c0,0,0,.01,0,.02Zm0-.66s0,0,0,0c0,0,0,0,0,0,0,0,0,0,0,0h0Zm-.38.72h0s0,0,0,0c0,0,0,0,0,0Zm-.19.67s0,.02,0,.03c.01,0,0-.02.01-.04,0,0,0,0,0,0-.01.01,0,.03-.01.05,0-.01,0-.03,0-.04,0,0,0,0,0,0Zm-.07,1.16s0-.01,0-.02c0,0,0,.01,0,.02Zm.11,1.19s0,0,0,0c0,0,0,0,0,0,0,0,0,0,0,0Zm.29-.15s0,0,0,0c0,0,0,0,0,0,0,0,0,0,0-.01Zm0-.18h0s0,0,0,0c0,0,0,0,0,0,0-.02,0-.03.02-.03,0,0,0,0,0,.01,0,0-.02,0-.02.02,0,0,0,0,0,0Zm.41-.23h0s0,0,0,0c0,0,0,0,0,0Zm3.8-1.52s0,0,0,0h0s0,0,0,0Zm-.02-.36s-.03-.01-.02-.03c0,0,0-.02,0-.02,0,.02,0,.04.02.05Zm-.23,3.81s0,0,0,0c0,0,0-.01,0-.02,0,0,0,.01,0,.02Zm-2.15-.6h0s0,0,0,0h0Zm1.85-4.32s0,0-.01,0c0,0,0,0,.01,0,0,0,0,0,0,0Zm1.83.54s0,0,0,0h0s0,0,0,0Zm-1.63,4.26h0s0,0,0,0c0,0,0,0,0,0,0,0,0,0,0,0Zm0,.06s0,0,0,0c0,0,0,0,0,0,0,0,0,0,0,0Zm-.17-1.33s0,0,0,0c0,0,0,0,0,0Zm.33-1.71s0,0,0,0c0,0,0,0,0,0,0,0,0,0,0,0,0,0,0,0,0,0,0,0,0,0,0,0h0s0,0,0,0Zm1.14-2.29h0s0,0,0,0c0,0,0,0,0,0Zm.03.39s0,0,0,0c0,0,0,0,0,0,0,0,0,0,0,0Zm.25,1.62h0s0,0,0-.01c0,0,0,0,0,0,0,0,0,0,0,.01Zm.05-.26s0,0,0,0c0,0,0,0,0,0,0,0,0,0,0,.01,0,0,0,0,0,0Zm-.37-2.11h0s0,0,0,0c0,0,0,0,0,0Zm.05.42s0,.03.03.04c0,0,0,.02,0,.02,0-.02-.01-.04-.02-.06Zm0,.27h0s0,0,0,0c0,0,0,0,0,0Zm-1.3,3.81s0,0,0,0c0,0,0,0,0,0h0Zm.09.01s-.01,0-.02,0c0,0,.01,0,.02,0Zm0-1.13s0,0,.01-.01c0,0,0,.01,0,.02,0,0,0,0-.01,0Zm-.25-.3s0,0-.01,0c0,0,0,0,.01,0Zm.3,1.76s0,0,0,0c0,0,0,0,0,0,0,0,0,0,0,0Zm1.01-3.61s0,0,0-.01c0,0,0,0,0,.01Zm0,.92h0s0,0,0,0h0Zm-.04-1.33h0s0,0,0,0c0,0,0,0,0,0Zm-.5,1.55s0,0,0,0c0,0,0,0,0,.01,0,0,0,0,0,0Zm-.03.52s0,0,0,0c0,0,0,0,0,0,0,0,0,0,0,0Zm.02,0s0,0,0,0c0,0,0,0,0,0,0,0,0,0,0,0,0,0,0,0,0,0Zm.54.18s0-.06,0-.09c0,0,0,.02,0,.02,0,.02,0,.04,0,.06Zm-.03-1.91s0,0,0,0c0,0,0,0,0,0,0,0,0,0,0,0Zm-.12,2.55s0,0,0,0c0,0,0,0,0,0,0,0,0,0,0,0Zm.17-1.57h0s0,0,0,0c0,0,0,0,0,0Zm-.23-1.55s0,0,0,0c.03,0,.03-.01.02-.04,0,0,0,0,0,.01,0,0-.01.02-.02.03Zm-.33,1.24s0,0,0,0c0,0,0,0,0,0,0,0,0,0,0,0Zm-.14.8s0-.02,0-.02c0,0,0,0,0,.02,0,0,0,0,0,0,0,0,0-.02,0-.02,0,0,0,.02,0,.03h0Zm-.11,1.29s0,0,0,0c0,0,0,0,0,0,0,0,0,0,0,0Zm-.63-.89s0,0-.01-.01c0,0,0,0,.02,0,0,0,0,.02,0,.02Zm-.22.05s0,0,0,0h0Zm.49,1.35h0s0,0,0,0c0,0,0,0,0,0h0s0,0,0,0h0Zm.57-1.26s0,0-.01-.01c0,0,.02-.01.02-.02,0,.01-.01.02,0,.03Zm.14,1.57s0,0,0,0h0s0,0,0,0c0,0,0,0,0,0,0,0,0,0,0,0,0,0,0,0,0,0Zm.31-.84s0,0,0,0c0,0,0,0,0,0,0,0,0,0,0,0Zm.34-2.26s0,0,0,0c0,0,0,0-.01,0,0,0,0,0,0,0Zm.07,1.59s0,0,0,0c0,0,0,0,0,0h0s0,0,0,0c0,0,0,0,0,0,0,0,0,0,0,0,0,0,0,0,0,0Zm.22-1.1s0,0,0-.01c0,0,0,0,0,0,0,0,0,0,0,0Zm-.35-1.51s0,0,0,0c-.02.01-.04.02-.06.03h0s.05-.01.06-.03Zm-.09.44h0s0,0,0,0c0,0,0,0,0,0Zm-.48.1s0,0,0,0c0,0,0-.01-.02-.02,0,0,0,0,.01,0,0,0,0,0,0,0Zm-.58.98s0-.01,0-.02c0,.01,0,.03,0,.04,0,0,0-.01,0-.02Zm-2.35.21s0,0,0,.01c0,0,0,0,0,0,0,0,0,0,0,0Zm.09,1.08s-.01,0-.02.01c0,0,0-.01,0-.02,0,0,.01,0,.02,0Zm-.04.09s0,0,0,0c0,0,0,0,0,0Zm.05,1.19s0,0,0,0c0,0,0,0,0,0,0,0,0,0,0,0Zm.29-1.04s0,0-.01.01c0,0,0,0,.01-.01Zm-.05.01s0,0,0,0c0,0,0,0,0,0,0,0,0,0,0,0Zm.01.14h0s0,0,0,0c0,0,0,0,0,0,0,0,0,0,0,0Zm-.38-1.52s0,0,0,0c0,0,0,0,0-.01,0,0,0,.01,0,.02Zm.01.19s0,0,0,0h0s0,0,0,0h0s0,0,0,0c0,0,.01,0,.02.01,0,0-.01,0-.02,0,0,0,0,0,0,0,0,0,0,0,0,0Zm.89.25s0,0,0,0h0s0,0,0,0Zm.18.91s0,0,0,0c0,0,0,0,0,0,0,0,0,0,0,0Zm.17-.35s0,0,0,0c0,0,0,0,0,0,0,0,0,0,0,0Zm-.1-.36s0,0,0,0c0,0,0,0,0,0h0Zm.02.83s0,0-.01-.01c0,0,0,0,0,0,0,0,.01,0,.02,0,0,0,0,0,0,0Zm0,0s0,0,0,0c0,0,0,0,.01.01,0,0,0,0,0,0,0,0,0-.01,0-.01Zm.18-.2s0,0,.01,0c0,0,0,0-.01,0Zm-.11-.71s0,0,0,0c0,0,0,0,0,0h0s0,0,0,0Zm0-.06h0s0,0,0,0c0,0,0,0,0,0,0,0,0,0,0,0Zm-.14.4s-.01,0-.02,0c0,0,0,0,0,0,0,0,.01,0,.01,0,0,0,0,0-.01,0,0,0,0,0,0,0,0,0,.01,0,.02,0Zm-.23-.29s0,0,0,0c-.01,0-.02.01-.02.02,0,0,.01-.01.02-.02Zm-.14.09s0,0,0,0c0,0,0,0,0,0,0,0,0,0,0,0Zm.04.9s0,0,0,0c0,0,0,0,0,0,0,0,0,0,0,0,0,0,0,0,0,0Zm.24-.08s0,0,0,0c0,0,0,0,0,0,0,0,0,0,0,0Zm.31-.06s0,0,0,0c0,0-.01,0-.02,0,0,0,0,0,.01,0Zm-.03.08s0,0,0,0c0,0,0,0,0,0,0,0,0,0,0,0Zm.27-.26s0,0,0,0c0,0,0,0,0,0,0,0,0,0,0,0Zm.02-1.47s0-.01,0-.02h0v.02h0Zm-.1.94s0,0,0,.01c0,0,0,0,0,0,0,0,0,0,0,0Zm.11-.45s0,0,0,0c0,0,0,0,0,0Zm0-1.02s0-.01,0-.01c0,0,.01-.01.02-.02,0,.01-.01.02-.01.03Zm-.04-.01s0,0,0,0c0,0,0,0,0,0,0,0,0,0,0,0Zm-.83,1.25h0s0,0,0,0h0Zm.05,1.71s0,0,0,0c0,0,0,0,0,0,0,0,0,0,0,0Zm-.23-1.63s0,0,0,0c0,0,0,0,0,0,0,0,0,0,0,0Zm-.49,1.54s0,0,0,0c0,0,0,0,0,0h0v-.02s.01,0,.02,0c0,0,0,0-.02,0,0,0,0,.01,0,.02,0,0,0,0,0,0,0,0,0,0,0,0,0,0,0,0,0,0,0,0,0,0,0,0Zm.3-.12s0,0,0,0c0,0,0,0,0,0,0,0,0,0,0-.01Zm1.51-.89s0,0,0,0c0,0-.01.02-.02.02,0-.01.01-.02.01-.03Zm.2,1.07s0,0,0-.01c0,0,0,0,0,.01Zm.17,1.39s0,0,0,0c0,0,0,0,0,0,0,0,0,0,0,0h0Zm.11,0s0,0,0,0c0,0,0,0,0,0,0,0,0,0,0,0h0s0,0,0,0c0,0,0,0,0,0,0,0,0,0,0,0Zm.01-.14s0,0,0,0c0,0,0,0,0,0,0,0,0,0,0,0Zm.93-1.33s0,0,.02,0c0,0,0,0,0,0,0,0-.01,0-.01,0Zm.69-3.57s0,0,0,0c0,0,0,0,0,0h0Zm-.03-.24s0,.01,0,.02c0,0,0-.01,0-.02Zm-.41-.65s0,0,0,0c0,0,0,0,0,0,0,0,0,0,0,0Zm-.08.41s0,.01,0,.02c0,0,0,0-.02-.01,0,0,0,0,.02,0Zm-.73,1.83s0,0,0,0c0,0,0,0,0,0h0Zm-.73-1.08s0,0,0,0c0,0,0,0,0,0,0,0,0,0,0,0Zm-.21,1.67s0,0,0,0c0,0,0,0,0,0,0,0,0,0,0,0Zm-.56-.14s-.03-.02-.02-.04c0,0,0,0,0,0,0,.02.01.03.02.04,0,0,0,0,0,0Zm-2.24.03s0,0,0,0c0,0,0,0,0,0,0,0,0,0,0,0Zm.7,1.82s0,0,0,0c0,0,0,0,0,0h0Zm.16-2.69s0,0,0,0c0,0,0,0,0,0,0,0,0,0,0,0Zm-.08,1.18s0,0,0,0c0,0,0,0,0,0,0,0,0,0,0,0Zm.08-1.18s0,0,0,0c0,0,0,0,0,0,0,0,0,0,0,0Zm.03-.19s0,0,0,0c0,0,0,0,0,0,0,0,0,0,0,0Zm-.76,1.77s0,0,0,0c0,0,0,0,.01,0,0,0,0,0,0,.01Zm0-.09s0,0,0,0c0,0,0,0,0,0Zm.13,2.05s0,0,.01.01c0,0,0,0-.01,0,0,0,0,0,0-.01Zm.72-3.46s0,0,0,0c0,0,0,0,0,0,0,0,0,0,0,0Zm.22,3.4s0,0,.01,0c0,0,0,0,0,0,0,0,0,0-.01,0Zm.08-.19s0,0,0,0c0,0,0,0,0,0,0,0,0,0,0,0,0,0,0,0-.01,0Zm.11-.58h0s0,0,0,0h0Zm.26-.02s0,0,0,0c0,0,0,0,0,0,0,0,0,0,0,0h0Zm.91-.26s0,0,0,0c0,0,0,0,0,0,0,0,0,0,0,0Zm.25-.84s0,0,0,0c0,0,0,0,0,0,0,0,0,0,0,0Zm.02.19s0,0,0,0c0,0,0,0,0,0,0,0,0,0,0,0Zm.18.8s0,0,0,0c0,0,0,0,0,0,0,0,0,0,0,0Zm.25,1.11s0,0,.01,0c0,0,0,0,0,0,0,0,0,0-.01,0,0,0,0,0,0,0Zm.13.16s0,0,0,0h0s0,0,0,0h0s0,0,0,0Zm.04-.03h0s0,0,0,0h0Zm.31-.26s0,0,0,0c0,0,0,0,0,0,0,0,0,0,0,0Zm.24-.28h0s0,0,0,0c0,0,0,0,0,0,0,0,0,0,0,0,0,0,0,0,0-.01Zm.1.31s0,0,0,0c0,0,0,0,0,0,0,0,0,0,0,0Zm.65-1.49s.01.02,0,.03c0-.01,0-.02,0-.03Zm0-3.79h0s0,0,0,0c0,0,0,0,0,0Zm-.69.47s0,0,0,0c0,0,0,0,0,0,0,0,0,0,0,0Zm-.29,1.55s0,0,0,0c0,0,0,0,0,0,0,0,0,0,0,0Zm-2.22-1.55s0,0,0,0c0,0,0,0,0,0,0,0,0,0,0,0Zm.05,1.6s0,0,0,0c0,0,0,0,0,0,0,0,0,0,0,0Zm0,0h0,0Zm-.28-1.3s0,0,0,0c0,0,0-.02.02-.01,0,0,0,0,0,0,0,0-.01.01-.02.02Zm-1.75-.49h0s0,0,0,0c0,0,0,0,0,0Zm0-.3s0,0,0,0c0,0,0,0,0,0,0,0,0,0,0,0ZM.39,5.59H.39s0,0,0,0H.39Zm.14-.09h0s0,0,0,0c0,0,0,0,0,0,0,0,0,0,0,0Zm.12.43s0,0,0,0h0s0,0-.01,0c0,0,0,0,0,0,0,0,0,0,.01,0Zm.3-.58s0,0,0,.01c0,0,0,0,0,0,0,0,0,0,0-.01Zm.08.09h0s0,0,0,0Zm.17-.84s0,0,0,0c0,0,0,0,0,0,0,0,0,0,0-.01Zm.06-.1h0s0,0,0,0c0,0,0,0,0,0,0,0,0,0-.01,0,0,0,0,0,0,0,0,0,0,0,0,0,0,0,0,0,0,0Zm.3.99s0,0,0,0c0,.01.01.02.02.02-.01,0-.03,0-.02-.02Zm.09.25h0s0,0,0,0c0,0,0,0,0,0t0,0s0,0,0,0h0s0-.01-.01-.01Zm.03.02s0,0,0,0c0,0,0,0,0,0h0Zm.25.15s0,0,0,0c0,0,0,0,0,0,0,0,0,0,0,0Zm.07.08s0,0,0,0c0,0,0,0,0,0,0,0,0,0,0,0Zm.05-.09s0,0,0,0c0,0,0,0,0,0,0,0,0,0,0,0Zm.69.31s0,0,0,0c0,0,0,0,0,0h0s0,0,0,0Zm.14.15s0,0,0,0c0,0,0,0,0,.01,0,0,0,0,0,0Zm.61-1.04h0s0,0,0,0c0,0,0,0,0,0Zm.28.1h0s0,0,0,0h0Zm.27.27s0,0,0,0c0,0,0,0,0,0,0,0,0,0,0,0h0Zm.04-.72s0,0,0-.01c0,0,0,0,0,0,0,0,0,0,0,.01Zm.14-.3s0,0,0,0c0,0,0,0,0,0,0,0,0,0,0,0Zm.14.45s0,.01,0,.02c0,0,0,.02,0,.03,0,0,0,.02,0,.03,0-.02,0-.05,0-.07Zm.16.55s0,0,0,0c0,0,0,0,0,0,0,0,0,0,0,0Zm.13,0s0,.01,0,.02c0,0,0-.01-.02-.02,0,0,.01,0,.02,0Zm.05.43s0,.02-.02.02c-.02,0-.01-.02-.01-.03.01,0,.03,0,.04,0Zm0,.39s0,0,0,0c0,0,0,0,0,0,0,0,0,0,0,0Zm0,.16s0,0,0,0c0,0,0,0,0,0,0,0,0,0,0,0Zm.12.21s0,0,0,.01c0,0,0,0,0,0,0,0,0,0,0,0Zm.1-.53h0s0,0,0,0c0,0,0,0,0,0h0Zm.32-.33s.01-.05.01-.08c0,.02,0,.03,0,.05,0,.01,0,.02,0,.03Zm.38.32s0-.05.02-.07c0,.02-.02.05-.02.07Zm.17-.72s0,0,0,0c0,0,0,0,0,0,0,0,0,0,0,0Zm.57-.51s0,0,0,0c0,0,0,0,0,0h0s0,0,0,0Zm.19-.42s0,0,0,0c0,0,0,0,0,0,0,0,0,0,0,0Zm.33,1.02s0-.01.01-.01c0,0,0,0,0,.01,0,0,0,0-.01,0Zm.17-.19s0,0,0,0c0,0,0,0,0,0,0,0,0,0,0,0Zm.16.28s0,0,0,0c0,0,0,0,0,0,0,0,0,0,0,0,0,0,0,0,0,0Zm.12-.13h0s0,0,0,0c0,0,0,0,0,0,0,0,0,0,0-.01h0Zm1.08-.33s0,0,0,0c0,0,0,0,0,0,0,0,0,0,0,0Zm1.24-.25s0,0,0,0h0s0,0,0,0c0,0,0,0,0,0Zm.26.21h0s0,0,0,0c0,0,0,0,0,0Zm.56.25h0s0,0,0,0c0,0,0,0,0,0Zm.33-4.22s0,0,0,.01c0,0,0,0,0,0,0,0,0,0,0-.01Zm-.47-.46s0,0,0,0c0,0,0,0,0,0,0,0,0,0,0,0Zm-.16.87s0,0,0,0c0,0,0,0,0,0h0Zm-.18-.82h0s0,0,0,0c0,0,0,0,0,0Zm-1.66-.3s0,0,0,0c0,0,0,0,0,0,0,0,0,0,0,0Zm-1.23.4s0,0-.02.01c0,0,.01-.01.02-.02,0,0,0,0,0,.01Zm-.4-.26h0s0-.02,0-.04c0,0,0,0,0,0,0,0,0,0,0,0h0s0,.03,0,.04Zm-.12.93s0,0,0,0c0,0,0,0,0-.01,0,0,0,0,0,0,0,0,0,0,0,.01,0,0,0,0,0,0,0,0,0,0,0,0Zm-1.22-.37s0,0,0,0c0,0,0,0,0,0,0,0,0,0,0,0Zm-.37,1.92s0,0,0,0c0,0,0,0,0,0,0,0,0,0,0,0Zm-.05-1.86s0,0,0,0c0,0,0,0,0,0,0,0,0,0,0,0Zm-.49,1.49s0,0,0,0c0,0,0,0,0,0,0,0,0,0,0,0Zm-.48-1.62s0,.03,0,.05c0-.02,0-.03,0-.05Zm-.27.53s0,0,0,0c0,0,0,0,0,.01,0,0,0,0,0-.01Zm-.77.7s0,0,0,0c0,0,0,0,0,0h0Zm-.31-.92s0,0,0,0c0,0,0,0,0,0,0,0,0,0,0,0Zm-1.18.22s0,0,0,0c0,0,0,0,0,0,0,0,0,0,0,0Zm-.06.1s0,0,0,0c0,0,0,0,0,0,0,0,0,0,0,0Zm-.19,1.6s0-.02,0-.03c0,0,0,.02.01.02,0,0,0,0-.02,0Zm-.23-2.18s0,0,0,0c0,0,0,0,0,0,0,0,0,0,0,0Zm-.48,2.45s0,0,0,0c0,0,0,0,0,0,0,0,0,0,0,0Zm-.12,1.59s0-.03,0-.04H.31s0,.03,0,.04h0Zm.04.03H.35s0,0,0,0Zm.35.08s0,0,0,0c0,0,0,0,0,0,0,0,0,0,0,0Zm.09-.33s0,0,0,0c0,0,0,0-.01,0,0,0,0,0,0,0Zm.27,1.3s0,0,0,0c0,0,0,0,0,0,0,0,0,0,0,0h0Zm.38-.75s0,0,0,0c0,0,0,0,0,0h0Zm.13.45s0,0,0,.01c0,0,0,0,0,0,0,0,0,0,0-.01Zm.26.13s0,0,0-.01c0,0,0,0,0,.01Zm.08-.17v.02s0,0,0-.01c0,0,0,0,0,0Zm.08-.08s0,0,0,0c0,0,0,0,0,0,0,0,0,0,0,0Zm.15.3s0,0,0,0c0,0,0,0,0,0,0,0,0,0,0,0Zm.12-.18s0,0,0,0h0s0,0,0,0h0Zm.11-1.26s0,0,0,0c0,0,0,0,0,0,0,0,0,0,0,0Zm.27,1.67h0s0,0,0,0h0s0,0,0,0Zm-.01-.17s0,0,0,0c0,0,0,0,0,0,0,0,0,0,0,0,0,0,0,0,0,0Zm.15.01s0,0,0,0c0,0,0,0,0,0,0,0,0,0,0,0Zm.06-.06s0-.01,0,0c0,0,0,0,0,0,0,0,0,0,0,0,0,0,0,0,0,0Zm1.75-.22s-.01,0-.02-.01c0,0,.01,0,.02.01Zm.19.9s.03-.01.04-.02c0,0,0,0,0,0-.02,0-.03,0-.04.02h0Zm.37-.57s0,0,0,0c0,0,0,0,0,0,0,0,0,0,0,0,0,0,0,0,0,0Zm.14-.73s0,.01,0,.02c0,0,0,0,0,0,0,0,0-.01,0-.02Zm.13.33s0,0,0,0c0,0,0,0,0,0,0,0,0,0,0,0Zm.82-.98s0,0,0,0c0,0,0,0,0,0,0,0,0,0,0,0Zm.66.98h0s.02,0,.02,0h0s-.02,0-.02,0Zm.02-.11s0,0,0,0c0,0,0,0,0,0Zm.18.4s0,0,0,0c0,0,0,0,0,0,0,0,0,0,0,0Zm1.13-.33s0,0,0,0c0,0-.02,0-.02,0,0,0,.01,0,.02,0Zm.74-.25s0,0,0,0c0,0,0,0,0,0Zm.17-.42s0,0,0,0c0,0,0,0,0,0Zm1-.49h0s0,0,0,0h0s0,0,0,0c0,0,0,0,0,0,0,0,0,0,0,0Zm.08-.73s0,0,0,0c0,0,0,0,0,0,0,0,0,0,0,0Zm.53-2.52h0s0-.01,0-.01c0,0,0,0,0,.01Zm.1.51h0s0,.01,0,.01c0,0,0-.01,0-.01Zm-.06-.12s0,0,0,0c0,0,0,0,0,0,0,0,0,0,0,0Zm-.49-1.13s0,0,0,0c0,0,0,0,0,0,0,0,0,0,0,0Zm-2.23-.28s0,0,0,0c0,0,0,0,0,0,0,0,0,0,0,0Zm-.49.19s0,0,0,0c0,0,0,0,0,0h0s0,0,0,0c0,0,0,0,0,0Zm-.39-.25s0,0,0,0c0,0,0,0,0,0h0Zm-.51.14s0,0,0,0c0,0,0,0,0,0,0,0,0,0,0,0Zm-.5.04s0,0,0,0c0,0,0,0,.01,0,0,0,0,0,0,0Zm-1.85,2.2s0,0,0,0c0,0,0,0,0,0,0,0,0,0,0,0Zm-1.33-.88s0,0,0,0c0,0,0,0,0,0Zm-.12-.55s-.01-.01,0-.02c0-.01,0-.02,0-.04,0,.02,0,.04,0,.06Zm-.46-.23h0s0,0,0,0c0,0,0,0,0,0Zm-.1.67s0,0,0,0c0,0,0,0,0,0,0,0,0,0,0,0Zm-.61,1.38s0,0,0,0c0,0,0,0,0,0,0,0,0,0,0,0Zm-.23-2.24h0s0,0,0,0c0,0,0,0,0,0Zm-.86,4.91h0s0,0,0,0h0Zm.21-.82s0,0,0,0c0,0,0,0,0,0,0,0,0,0,0,0Zm.1.47s0,0,0,0c0,0,0,0,0,0,0,0,0,0,0,0Zm.93.67s0,0,0,0c0,0,0,0,0,0,0,0,0,0,0-.01Zm.03-.09h0s0,0,0,0c0,0,0,0,0,0h0s0,0,0,0Zm.02,0s0,0,0,0c0,0,0,0,0,0,0,0,0,0,0,.01,0,0,0,0,0-.01,0,0,0,0,0,0,0,0,0,0,0,0Zm.26.16s.01,0,.02,0c0,0,0,0,0,0,0,0,0,0,0,0h0s0,0,0,0c0,0-.01,0-.02,0,0,0,0,0,0,0Zm.03.16s-.01,0-.02,0c0,0,0,0,0,0,0,0,.01,0,.02,0,0,0,0,0,0,0Zm0-.21s0,0,0,0h0s0,0,0,0c0,0,0,0,0,0,0,0,0,0,0,0,0,0,0,0,0,0Zm.14-.57h0s0,0,0,0h0s0,0,0,0c0,0,0,0,0,0Zm.14.73h0s0,.01,0,.02c0,0,0,0,0,0,0,0,0-.01,0-.02Zm.14.16s0,0,0,0c0,0,0,0,0,0,0,0,0,0,0,0Zm.08-.38s0,0,0,0c0,0,0,0,0,0,0,0,0,0,0,0Zm.23-.52s0,0,0,0c0,0,0,0,0,0h0Zm.45.18s0,0,0,0c0,0,0,0,0,0,0,0,0,0,0,0Zm.04.08h0s0,0,0,0c0,0,0,0,0,0Zm.2-.02s0,0,0,0c0,0,0,0,0,0,0,0,0,0,0,0Zm.09-.02s0,0-.01-.01c0,0,0,0,.01.01Zm.65.44s0,0,0,0c0,.02.02,0,.03,0,0,0,0,0,0,0,0,0-.02,0-.03,0Zm.49.67h0s0,0,0,0h0Zm.85-.88s.02-.02.03-.01c-.01,0-.02,0-.03.01Zm.52-.26s0-.01,0,0c0,0,.01,0,.02,0,0,.01-.02.02-.01.03,0,0,0-.01,0-.02Zm.07-.35h0s0,0,0,0c0,0,0,0,0,0Zm.08.59s0,0,0,0c0,0,0,0,0,0h0Zm.12-1.26s0,0,0,0c0,0,0,0,0,0,0,0,0,0,0,0Zm.38,1.45s0,0,0,0c0,0,0,0,0,0,0,0,0,0,0,0Zm.61-.07s0,0,0,0h0s0,0,0,0c0,0,0,0,0,0,0,0,0,0,0,0,0,0,0,0,0,0Zm.06.04s-.01-.02-.02-.02c0,0,.02.01.02.02Zm1.72-.68s0,0,0,0c0,0,0,0,0,0,0,0,0,0,0,0Zm.5.35s0,0,0,0c0,0,0,0,0,0,0,0,0,0,0,0Zm.49-1.71s0,0,0,0c0,0,0,0-.01,0,0,0,0,0,0,0Zm.34,1.53s0,0,0,0c0,0,0,0,0,0,0,0,0,0,0,0Zm.16-3.95s0,0,0,0c0,0,0,0,0,.01h0Zm.06.9s0,0,0,0c0,0,0,0,0,0,0,0,0-.01,0-.01Zm.08-.59s0,0,0,0c0,0,0,0,0,0,0,0,0,0,0,0Zm-.04-.3s0,0,0,0c0,0,0,.02,0,.03,0,0,0-.02,0-.03Zm-.06-.84h0s0,0,0,0c0,0,0,0,0,0,0,0,0,0,0,0,0,0,0,0,0,0,0,0,0,0,0,0Zm-.05-.44s0,0-.01,0h0s0,0,.01,0Zm-.23.27s0,0,0,0c0,0,0,0,0,0,0,0,0,0,0,0Zm-.48,0s0,0,0,0c0,0,0,0,0,0,0,0,0,0,0,0Zm-.19-.5s0,.02,0,.03c0-.01,0-.02,0-.03,0,0,0,0,0,0Zm-.85.29s-.06.03-.09.03c.04,0,.07,0,.09-.03,0,0,0,0,0,0Zm-.75-.23s0,0,0,0h0s0,0,0,0c0,0,0,0,0,0Zm-.16.17h0s0,0,0,0c0,0,0,0,0,0Zm-.37.8s0,0,0,0c0,0,0,0,0,0,0,0,0,0,0,0Zm-1.32-.71s0,0,0,0c0,0,0,0,0,0,0,0,0,0,0,0Zm-.67-.02s-.01,0-.02-.01c0,0,.01,0,.02.01h0Zm-.79.38s-.02-.04-.04-.05c.01.01.01.03.03.04,0,0,0,0,0,.01Zm-.59.09s0,.03,0,.04c0,.02,0,.04-.01.06,0-.03.01-.07.02-.1Zm-.4-.24s0,0,0,0c0,0,0,0,0,0,0,0,0,0,0,0h0s0,0,0,0c0,0,0,0,0,0Zm-1.02,1.29h0s0,0,0,0c0,0,0,0,0,0Zm-.45-1.29s0,0,0,0c0,0-.01,0-.02,0,0,0,0,0,0,0,0,0,.01,0,.02,0h0s0,0,0,0Zm-.25.18s0,0,0,0c0,0,0,0,0,0,0,0,0,0,0,0Zm-.37,2.02s-.01,0-.02,0c0,0,.01,0,.02,0,0,0,0,0,0,0ZM1.12.74s0-.01,0-.02c0,0,0,0,0,0,0,0,0,0,0,.01Zm-.77,1.32s0,0,0,0c0,0,0,0,0,0,0,0,0,0,0,0Zm-.05-.67h0s0,0,0,0c0,0,0,0,0,0H.3Zm.07,5.1s0,0,0,0H.37s0,0,0,0c0,0,0,0,0,0Zm.16-.58h0s0,0,0,0c0,0,0,0,0,0,0,0,0,0,0,0Zm.62.63s0,0,0,0c0,0,0,0,0,0,0,0,0,0,0,0h0Zm.25-.76s0,0,0,0c0,0,0,0,0-.01,0,0,0,.01,0,.02Zm.38.7h0s0,0,0,0h0Zm.02.06s0,0,0,0c0,0,0,0,0,0,0,0,0,0,0,0,0,0,0,0,0,0Zm.48-.37s0,0-.01,0c0,0,0,0,0,0,0,0,0,0,.01,0Zm.34.49s0,0,0,0c0,0,0,.01,0,.02,0,0,0,0,0,0,0,0,0-.01,0-.02Zm0-.11s0,0,0,0c.02.01.03,0,.05,0,0,0,0,0,0,0-.02,0-.03,0-.05,0Zm.08.02h0s0,0,0,0Zm.34.11s0,0,0,0h0s0,0,0,0h0Zm.23-.2s-.01,0-.01,0c0,0,.01,0,.01,0Zm.67-.23s0,0,0,0c0,0,0,0,0,0,0,0,0,0,0,0,0,0,0,0,0,0Zm.64.14s0,0,0,0c0-.04,0-.07,0-.09.01.03.01.06,0,.09Zm.09.7s0,0,0,0c0,0,0,0,0,0,0,0,0,0,0,0,0,0,0,0,0,0Zm.19-.12s0,0,0,0c0,0,0,0,0,0,0,0,0,0,0,0Zm.84-.3s0,0,0,0c0,0,0,0,0,0,0,0,0,0,0,0Zm.37-1.34s0,0,.01-.01c0,0,0,.01-.01.02,0,0,0,0,0,0Zm.47.2s0,0,0,0c0,0,0,0,0,0,0,0,0,0,0,0,0,0,0,0,0,0Zm.16.04s0,0,0,0c0,0,0,0,0,0h0Zm.62.9h0s-.02,0-.03,0h0s.02,0,.03,0Zm.94-.37s0,0,.01,0c0,0-.01,0-.02.01,0,0,0,0,0,0Zm.23-.41s0,0,0,0h0Zm.35.1s0,0,0,0c0,0,0,0,0,0,0,0,0,0,0,0,0,0,0,0,0,0Zm0-.08h0s0,0-.01,0c0,0,0,0,0,0h0s0,0,.01,0Zm.37.6s0,0,0,0c0,0,0,0,0,0,0,0,0,0,0,0Zm.43-.44s0,0,0,0h0s0,.02,0,.02c0,0,0,0,0,0,0,0,0,0,0,0,0,0,0,0,0,0,0,0,0-.01,0-.02Zm.26.23s0,0-.01,0h0s0,0,.01,0h0Zm.19-1.07s0,0,0,0c0,0,0,0,0,0,0,0,0,0,0,0Zm.03.14s0,0,0,0c0,0,0,0,0,0,0,0,0,0,0,0Zm.08.56s0,0,0,0c0,0,0,0,0,0,0,0,0,0,0,0Zm.07.24s0,0,0,0c0,0,0-.01,0-.02,0,0,0,0,0,0Zm.22-.48s0,0,.01,0c0,0,0,0,0,0,0,0-.01,0-.01,0Zm.09.27s0,0,0,0c0,0,0,0,0,0,0,0,0,0,0,0Zm.06-.74s0,0,0,0c0,0,.01,0,.02-.02,0,0,0,0,0,0,0,0-.01.01-.02.02Zm.02-.86s0,0,0,0h0s0,0,0,0Zm.06-1.63s0,0,0,0c0,0,0,0,0,0,0,0,0,0,0,0Zm.06.87s0,0,0,0c0,0,0,0,0,0,0,0,0,0,0,0Zm.08-1.24s0,0,0,0c0,0,0,0,0,0,0,0,0,0,0,0Zm-.04-.31s0,0,0,0c0,0,0,0,0,0,0,0,0,0,0,0Zm-.14-1.32s0,0,0,0c0,0,0,0,0,0,0,0,0,0,0,0h0Zm-.24.31h0Zm-.24-.21s0,0,0,0c0,0,0,0,0,0,0,0,0,0,0,0Zm-1.39,0h0s0,0,0,0h0Zm-.04,0s0-.01,0-.02c0,0,0,.02.02.02,0,0,0,0,0,0Zm-2.41-.06s0,0,0,0c0,0,0,0,0,0,0,0,0,0,0,0Zm-.65-.21s-.04.03-.06.05c0,0,0,0,0,0,0,0,.01-.01.02-.01.02,0,.03-.02.04-.04h0Zm-.43.14s0,0,0-.01c0,0,0,.01,0,.01,0,0,0,0,0,0Zm0,.18s0,0,0,0c0,0,0,0,0,0,0,0,0,0,0,0Zm-.06,1.02s0,0,0,0c0,0,0,0,0,0,0,0,0,0,0,0Zm-.25-1.13s0,0,0,0c0,0,0,0,0,0,0,0,0,0,0,0Zm-.22.21s0,0,0,0c0,0,0,0,0,0,0,0,0,0,0,0Zm-1.87-.06s0,0,0,0h0s0,0,0,0c0,0,0-.01,0-.02,0,0,0,.01.01.01,0,0,0,0,0,0Zm-.53,0s0,0,0,0c0,0,0,0,.01,0h0Zm0,0s0,0,0,0c0,0,0,0,0,0,0,0,0,0,0,0Zm-.21-.06s0,0,0,0c0,0,0-.01,0-.02,0,0,0,.02,0,.02Zm-.57.1s0,0,0,0c0,0,0,0,0,0h0Zm-.31.14s0,0,0,0h0s0,0,0,0c0,0,0,0,0,0,0,0,0,0,0,0Zm-.92-.1s0,0,0,0c0,0,0,0,0-.01,0,0,0,.01,0,.02Zm-.05.25s0,0,0,0c0,0,0,0,0,0,0,0,0,0,0,0Zm-.04,4.16h0s0,0,0,0c0,0,0,0,0,0Zm-.08.2s0,0,0,0c0,0,0,0,0,0,0,0,0,0,0,0Zm.01.08s0,0,0,0c0,0,0,0,0,0,0,0,0,0,0,0Zm.78.71h0s0,0,0,0c0,0,0,0,0,0,0,0,0,0,0,0,0,0,0,0,0,0Zm.19.46s0,0,0,0c0,0,0,0,0,0Zm.18-.92s0,0,0,.01c0,0,0,0,0,0,0,0,0,0,0-.01,0,0,0,0,0,0Zm.1.49s0,0,0,0c0,0,0,0,0,0,0,0,0,0,0,0Zm.02,0s0,0,0,0c0,0,0,0,0,0,0,0,0,0,0,0Zm.01.18s0,0,0-.01h0s0,0,0,.01h0Zm.14.02s0,0,0,0c0,0,0,0,0,0,0,0,0,0,0,0Zm.64-.15s0,0,0,0c0,0,0,0,0,0Zm.05-.08h0s0,0,0,.01c0,0,0,0,0,0,0,0,0,0,0-.01Zm.02-.02s0,0,0,0c0,0,0,0,0,0h0Zm.1-.44s0,0,0,0c0,0,0,0,0,0h0s0,.01,0,.02c0,0,0-.01,0-.02Zm0,.73s0,0,0,0c0,0,0,0-.01,0,0,0,0,0,0-.01Zm.04.31s0,0,0,0c0,0,0,0,0,0,0,0,0,0,0,0,0,0,0,0,0,0,0,0,0,0,0,0Zm.05,0s0,0,0,0c0,0,0,0,0,0h0Zm.18-.11h0s0,0,0,0h0s0,0,0,0Zm.05-.06s0,0,0,0c0,0,.01,0,.02,0h0s-.01,0-.02,0Zm.25-.83s0,0,0,0c0,0,0,0,0,0,0,0,0,0,0,0Zm.73.55s0,0,0,0h0s0,0,0,0Zm.23-.35s0,0,0,0c0,0,0,0,0,0,0,0,0,0,0,0Zm.12.75s0,0,0,0c0,0,0,0,0,0,0,0,0,0,0,0,0,0,0,0,0,0Zm.04-.22s0,0,0,0c0,0,0,0,0,0,0,0,0,0,0,0Zm.13-.58s0,.02.02.03c0,0,0,0,0,0,0,0,0,0,0,0,0,0,0,0,0,0,0-.01-.02-.02-.02-.03Zm.18.24s0,0,0-.01c0,0,.01,0,.02.02,0,0,0,0-.02,0Zm.12.03s0,0,0,0c0,0,0,0,0,0Zm.1.64h0s0,0,0,0h0Zm.16.18h0s0,0,0,0h0Zm.11.17s0,0,0,0c0,0,0,0,0,0,0,0,0,0,0,0Zm.2-.45h0s0,0,0,0c0,0,0,0,0,0,0,0,0,0,0,0,0,0,0,0,0,0Zm.06-.21s0,0,0,0c0,0,0,0,0,0,0,0,0,0,0,0h0s.02,0,.02,0c0,0-.01,0-.02,0Zm.31.23s0,0,0,0c0,0,0,0,0,0,0,0,0,0,0,0Zm.7-.79s0,0,0,0c0,0,0,0,0,0h0Zm-.01.21s0,0,0,0c0,0,0,0,0-.01,0,0,0,.01,0,.02Zm.33-.58s0,0,0,0c0,0,0,0,0,0,0,0,0,0,0,0Zm.37.79s0,0,0,0c0,0,0,0,0,0,0,0,0,0,0,0Zm.27-.01s0,0,0,0c0,0,0,0,0,0,0,0,0,0,0,0,0,0,0,0,0,0Zm.3.23s0,0,0,0c0,0,0,0,0,0,0,0,0,0,0,0Zm.14.09s0,0,0,0c0,0,0,0,0,0,0,0,0,0,0,0Zm.08-.27h0,0Zm.7-.14s0,0-.01.01c0,0,0-.01,0-.02,0,0,.01,0,.02,0Zm.56-.58h0s0,0,0,0c0,0,0,0,0,0h0s0,0,0,0c0,0,0,0,0,0Zm.24.67h0s0,0,0,0c0,0,0,0,0,0,0,0,0,0,0,0Zm.23,0h0s.01.01.02.02h0s0-.01-.02-.02c0,0,0,0,0,0Zm.12-.22h0s0,0,0,0h0Zm.74-.88h0s0,0,0,0c0,0,0,0,0,0Zm-.02.43s0,0,0,0c0,0,0,0,0,0,0,0,0,0,0,0,0,0,0,0,0,0Zm-.01,0s0,0,0,0c0,0,0,0,0,0,0,0,0,0,0,0Zm.68-2.57s0,0,0,0c0,0,0,0,0,0,0,0,0,0,0,0Zm.06-1.55h0s0,0-.01,0c0,0,0,0,.01,0Zm-.54-.77s0,0,0,0c0,0,0,0,0,0,0,0,0,0,0,0ZM6.21.23s0,0,0,0c0,0,0,0,0,0,0,0,0,0,0,0Zm-.5.08s0,0,0,0c0,0,0,0,0,0,0,0,0,0,0,0Zm-1.88.37s0,0,0,0c0,0,0,0,0,0,0,0,0,0,0,0,0,0,0,0,0,0,0,0,0,0,0,0Zm-3.45,0s0,0,0,0c0,0,0,0,0,0,0,0,0,0,0,0Zm-.07,1.35s0,0,0,0c0,0,0,0,0,0,0,0,0,0,0,0Zm-.04.08s0,0,0,0c0,0,0,0,0,0,0,0,0,0,0,0Zm.1.59h0s0,0,0,0c0,0,0,0,0,0ZM.12,5.63H.12s0,0,0,0h0Zm.14.35H.25s0,0,0,.01c0,0,0,0,0,0,0,0,0,0,0-.01Zm.52.21s.01,0,.02-.01c0,0,0,0,0,0,0,0-.01,0-.02,0Zm.01.22s0,.01,0,.02h0s0-.01,0-.02h0Zm.22-.25s0,0,0,0c0,0,0,0,0,0,0,0,0,0,0,0Zm.28-.44s0,0,0,0c0,0,0,0,0,0,0,0,0,0,0,0Zm.08.17s0,0,0,0c0,0,0,0,0-.01,0,0,0,0,0,0Zm.01.61h0s0,0,0,0c0,0,0,0,0,0Zm.49.31s0,0,0,0c0,0,0,0,0,0,0,0,0,0,0,0,0,0,0,0,0,0Zm.05-.47s0,0,0,0c0,0,0,0,0,0,0,0,0,0,0,0Zm.05,0s0,0,0,0h0s0,0,0,0c0,0,0,.01,0,.02,0,0,0-.01,0-.02,0,0,0,0,0,0Zm.39-.21s0,0,0,0h0s0,0,0,0Zm.14.72h0s.01,0,.02,0h0s-.02,0-.02,0Zm.77-.19s0,0,0,0h0s0,.02.02.03c0,0,0,0,0,0,0-.01,0-.02-.02-.03Zm.13-.3s0,0,0,0c0,0,0,0,0,0,0,0,0,0,0,0Zm.33.27h0s0,0,0,0c0,0,0,0,0,0Zm-.03-.31s0,0,0,0c0,0,0,0,0,0h0s0,0,0,0c0,0,0,0,0,0,0,0,0,0,0,0Zm.46-.15s0,0,0,0c0,0,0,0,0,.01,0,0,0,0,0,0Zm.4.37s0,0,0,0c0,0,0,0,0,0,0,0,0,0,0,0Zm0,.3s0,0,0,0h0s0,0,0,0h0Zm.26.39s0,0,0,0c0,0,0,0,0,0,0,0,0,0,0,0Zm.37-.42h0s0,0,0,0c0-.01,0-.03.02-.04,0,0,0,0,0,0-.01.01-.02.03-.02.05Zm.89-.86h0s0,0,0,0c0,0,0,0,0,0Zm1.19.63s0,0,0,0c0,0,0,0,0,.01,0,0,0,0,0,0Zm.06.15s0,0,0,0c0,0,0,0,0,0,0,0,0,0,0,0Zm.23-.02s0,0,0,0c0,0,0,0,0,0,0,0,0,0,0,0h0Zm1.36-.65h0s0,0,0,0h0Zm.77.32h0s0,0,0,0c0,0,0,0,0,0,0,0,0,0,0,0Zm.05.13s0,0,0,0c0,0,0,0,0,0,0,0,0,0,0,0Zm1.16-3.45h0s0-.03,0-.04h0s0,.03,0,.04Zm.04-2.07s0,0,0,0h0s0,0,0,0Z"/>
  </g>
</svg>